<svg width="512" height="512" viewBox="0 0 512 512" fill="none" xmlns="http://www.w3.org/2000/svg">
<path d="M100.302 35.1553C108.777 35.8236 124.816 35.3479 133.932 35.349L199.319 35.3405L410.085 35.4984L409.96 41.1408C426.188 41.0997 443.968 40.7377 460.205 41.4891C463.503 41.6417 478.655 56.3481 479.965 59.6529L480.247 60.3865C481.301 60.7823 482.349 61.0275 483.452 61.2422C484.658 64.4891 483.495 202.479 483.508 213.819L483.695 310.546C483.724 325.932 483.835 341.481 483.786 356.873C483.785 357.186 483.497 360.584 483.452 360.624C476.759 366.58 470.715 373.244 464.101 379.28C462.44 380.796 462.495 381.537 462.105 383.71L433.343 383.656C427.36 383.632 420.292 383.394 414.419 383.979C413.058 385.479 414.512 384.98 413.466 387.807C404.179 388.485 387.995 387.849 378.272 387.836L307.966 387.853C307.979 391.036 307.298 401.4 308.445 403.509C310.157 403.516 310.156 403.352 311.727 403.94C311.785 406.232 311.828 408.525 311.856 410.818C312.8 412.11 312.213 411.557 313.986 412.133C315.382 411.794 315.46 411.678 316.858 411.837C317.901 413.542 317.602 414.827 317.521 416.86C321.718 416.921 340.652 416.309 342.692 417.521L342.776 420.587C344.23 422.981 351.45 420.761 355.116 421.093C361.177 421.641 355.443 424.965 360.23 425.598C363.281 426.001 370.159 423.999 372.523 425.955C372.734 427.383 372.764 428.155 372.823 429.576C375.306 431.44 375.836 428.885 378.522 431.192L378.7 433.575C380.349 434.625 381.516 434.333 383.686 434.447L383.749 451.973C383.79 454.204 383.927 456.223 383.576 458.428C381.343 460.059 381.189 457.634 378.645 459.209C378.69 460.249 378.748 461.288 378.819 462.325L378.071 463.017L374.818 462.795C373.768 464.089 374.304 465.274 374.247 467.574C371.715 469.384 360.648 466.733 357.642 468.922C357.704 470.647 357.927 470.681 357.204 472.093C349.753 473.161 339.681 471.389 331.513 472.38C329.614 473.878 331.706 473.627 330.082 476.081C321.417 476.61 183.635 476.722 182.038 476.096C181.732 475.976 181.53 475.677 181.275 475.468L181.153 472.381C177.921 469.818 158.559 473.505 154.936 471.415C154.937 470.855 154.963 468.776 154.787 468.539C153.203 466.405 140.367 469.193 137.629 467.319C137.759 465.582 138.002 465.472 137.319 464.043L134.3 463.679C133.037 461.551 134.858 460.381 133.587 458.389C131.89 458.554 130.691 458.924 129.331 458.025C128.875 455.064 128.913 437.938 129.654 435.257C132.345 434.087 132.44 434.301 133.421 431.519C135.034 430.135 136.208 430.808 139.047 430.358C140.1 428.845 139.761 429.208 139.869 427.049C141.958 424.616 145.691 427.046 147.656 425.729L147.646 423.698C150.473 418.745 166.3 424.321 169.704 421.552L169.906 418.308C170.142 417.969 170.378 417.63 170.613 417.291C176.985 416.381 186.834 418.309 193.045 417.033C194.288 415.802 193.828 415.282 193.896 412.888C195.044 411.425 195.729 411.813 198.224 411.385C199.517 408.937 197.916 405.28 199.265 403.023C200.341 402.666 201.402 402.492 202.524 402.344C203.2 400.014 202.883 390.973 202.867 387.909C167.891 387.534 132.425 388.365 97.531 387.721C96.0733 386.096 97.552 385.918 96.1638 383.407L94.4566 383.436C79.8755 383.663 63.6504 384.118 49.0914 383.153C49.1335 383.156 46.9548 380.159 46.7391 379.879C41.2472 372.729 32.7505 367.001 27.8628 359.622C26.8387 351.376 27.2576 340.811 27.2776 332.524L27.3639 281.212C27.3965 208.011 27.9049 134.045 27.0713 60.9054C28.811 60.6265 30.0414 60.6065 31.4844 59.6161C31.8033 58.1637 31.758 58.0279 32.4695 56.7523L34.4419 56.485C37.2499 52.9623 41.8261 48.1145 45.0867 44.9518C46.2644 45.1613 45.8255 45.2213 46.9201 44.8445L47.5474 42.3133C49.8671 40.4156 62.6263 41.1618 66.2574 41.1597L100.281 41.1218L100.302 35.1553Z" fill="#848484"/>
<path d="M38.0811 357.73C35.7604 357.678 35.9993 358.037 34.3312 356.979C33.5955 353.814 33.9081 335.502 33.9144 331.293L33.8975 276.686L33.8596 139.333C33.8575 114.324 33.3955 87.6045 34.0691 62.7364C35.6078 61.063 36.1435 62.8795 38.5253 61.2218C38.0012 56.433 41.0355 57.6002 44.175 54.2628L43.553 52.9399C44.9486 51.1854 47.4893 51.8337 50.1995 50.1339C50.1879 48.7857 50.1384 48.7068 50.4815 47.4227C55.885 44.8789 97.4497 48.672 102.092 46.3545C102.416 44.9305 102.407 44.2779 102.486 42.8286L103.323 42.1929C121.664 41.8098 140.75 42.0751 159.173 42.0845L257.234 42.1403L351.666 42.1498C357.102 42.1445 406.25 41.5888 408.602 42.8392C408.658 44.4726 408.489 45.001 409.386 46.3324C412.985 47.9553 450.68 45.7051 458.544 47.107C459.425 48.6552 459.196 50.6097 459.192 52.4589C461.048 52.3073 463.785 51.8011 465.313 52.5999L466.083 54.9459C467.629 55.49 467.067 55.3132 468.858 55.1627C472.83 57.5192 468.77 60.9114 475.637 61.646C476.796 62.9911 476.541 64.4172 476.551 66.5338C476.63 83.3483 476.612 100.214 476.602 117.028L476.64 209.491L476.6 301.519C476.619 319.86 477.021 340.088 476.518 358.303C472.133 361.847 468.016 365.711 464.2 369.863C459.927 370.942 460.149 370.277 459.056 374.778C455.554 376.366 425.283 374.838 419.678 375.291C417.508 375.465 412.13 374.872 410.041 375.698C409.541 377.269 409.602 377.544 409.525 379.159C409.275 379.371 409.024 379.584 408.775 379.795C328.021 379.544 175.16 379.481 101.461 379.494L100.46 378.898C100.354 377.791 100.227 376.687 100.082 375.584C97.3034 373.691 54.4736 376.979 51.3772 374.254C51.2235 372.084 51.6214 372.08 50.4384 370.993C46.3453 370.432 38.4306 361.974 38.0811 357.73Z" fill="#C2C1C1"/>
<path d="M38.0811 357.73C35.7604 357.678 35.9993 358.037 34.3312 356.979C33.5955 353.814 33.9081 335.502 33.9144 331.293L33.8975 276.686L33.8596 139.333C33.8575 114.324 33.3955 87.6045 34.0691 62.7364C35.6078 61.063 36.1435 62.8795 38.5253 61.2219C38.0012 56.433 41.0355 57.6003 44.175 54.2628L43.553 52.9399C44.9486 51.1854 47.4893 51.8337 50.1995 50.1339C50.1879 48.7857 50.1384 48.7068 50.4815 47.4227C55.885 44.8789 97.4497 48.672 102.092 46.3545C102.416 44.9305 102.407 44.2779 102.486 42.8286L103.323 42.1929C121.664 41.8098 140.75 42.0751 159.173 42.0845L257.234 42.1403L351.666 42.1498C357.102 42.1445 406.25 41.5888 408.602 42.8392C408.658 44.4726 408.489 45.001 409.386 46.3324C412.985 47.9553 450.679 45.7051 458.544 47.107C459.425 48.6552 459.196 50.6097 459.192 52.4589C441.821 53.665 424.411 53.0756 406.987 53.2156L407.273 47.2312C391.566 46.6828 374.568 47.0933 358.708 47.0659L263.319 46.9702H161.693C143.061 46.9744 123.305 46.6229 104.793 47.1533C104.695 48.9962 104.638 51.0086 104.432 52.8283C98.1296 53.2019 56.4512 52.6683 54.6431 53.8787L54.5957 54.8217C54.5399 55.8626 54.482 56.2868 54.2578 57.3287C51.2414 58.3391 51.2235 56.9446 49.2154 58.4128C49.228 59.9094 49.3491 61.1977 48.9302 62.6269C47.2588 63.0869 46.6494 63.1806 44.9834 63.4163C43.553 65.1634 43.7456 65.3287 43.7298 67.9925C42.3248 69.0397 40.5271 68.7482 38.7284 68.6251C37.7307 147.756 39.1463 227.158 38.5442 306.317C38.4937 312.915 39.4462 353.748 38.0811 357.73Z" fill="#E1E0E0"/>
<path d="M111.53 76.3704C111.642 74.859 111.725 74.2117 112.018 72.7267C115.896 70.4091 148.814 72.7341 155.035 71.8405C161.747 70.8764 156.591 70.8901 159.221 68.2336L285.159 68.1768L328.587 68.1231C332.822 68.1137 349.504 67.2717 351.735 69.0693C352.251 70.7533 351.953 70.3986 352.931 71.7247C365.462 72.8004 386.372 71.9563 399.882 72.0847C399.974 73.5066 400.083 74.8748 400.073 76.303C404.72 76.2683 428.6 75.6989 431.448 76.8335C431.554 77.7039 431.664 78.5743 431.781 79.4437C435.782 80.7361 437.459 78.2459 439.954 80.533C440.382 82.2864 440.283 82.7043 440.174 84.4556C442.208 83.9525 442.043 83.6178 443.569 84.2977L444.846 87.0142L447.971 90.4653C447.887 98.1589 447.424 112.151 447.968 119.468C449.706 121.237 451.188 119.559 451.267 121.366C451.641 130.048 451.431 139.302 451.549 147.986C451.662 156.456 453.822 150.009 453.832 154.512C453.854 164.936 453.827 175.579 453.814 185.973L453.779 246.152C453.762 248.099 453.693 250.045 453.57 251.988C451.725 253.662 451.784 253.066 451.654 255.806C451.251 264.32 452.34 274.334 451.532 282.634C449.599 284.335 449.52 282.021 448.015 284.015C447.432 293.384 448.191 303.085 447.783 312.651L439.025 312.58L438.998 319.505C436.925 319.504 431.691 319.234 430.181 320.015C430.114 321.464 430.168 322.477 429.667 323.849C425.638 324.616 417.819 322.727 414.077 324.583C413.629 326.608 413.627 327.049 413.596 329.148C407.909 329.182 360.306 329.202 358.698 330.041C358.548 331.241 358.438 332.302 358.342 333.507C356.287 334.507 322.207 334.22 317.127 334.229L241.385 334.325L180.194 334.249C172.615 334.225 159.054 334.679 152.041 334.075C150.224 331.584 152.368 331.582 150.606 329.571C142.168 328.982 103.234 330.379 99.0421 328.777C98.4506 327.389 98.5895 326.5 98.6053 324.999C96.4582 322.188 84.442 325.898 80.3879 323.311C80.1795 321.888 80.1773 321.441 80.1868 319.993C78.0597 318.489 74.9991 319.964 72.831 318.596C68.7473 317.948 68.5768 318.424 66.8487 314.914C66.9044 313.882 66.9708 314.44 66.495 313.262L64.7679 313.323C64.0712 313.118 62.2114 312.642 62.0462 311.959C60.9653 307.485 62.9692 284.411 61.1715 281.642L58.4246 281.133L57.9888 280.489C57.2437 268.228 57.892 250.083 57.9394 237.373L57.8552 165.302C57.832 155.392 57.7731 145.455 57.7825 135.548C57.7847 132.783 57.2774 122.56 58.4709 121.005C59.6402 120.944 60.1612 120.891 61.3136 120.689C62.8071 117.038 60.2012 94.3753 62.2893 90.3485C63.5481 90.4011 64.047 90.4021 65.2994 90.2906L65.7225 89.4317C67.3149 86.2627 68.5958 84.1325 71.9101 83.0526C72.2805 82.359 72.3258 80.9003 72.4226 80.0215C73.914 79.6057 77.8587 79.6131 79.6827 79.5289C82.3791 77.787 79.4311 79.0658 81.3119 76.4925C87.1669 75.7957 105.196 76.0999 111.53 76.3704Z" fill="#2A9C84"/>
<path d="M111.53 76.3704C111.642 74.859 111.725 74.2117 112.018 72.7267C115.896 70.4091 148.814 72.7341 155.035 71.8405C161.747 70.8764 156.591 70.8901 159.221 68.2336L285.159 68.1768L328.587 68.1231C332.822 68.1137 349.504 67.2717 351.735 69.0693C352.251 70.7533 351.953 70.3986 352.931 71.7247C365.462 72.8004 386.372 71.9563 399.882 72.0847C399.974 73.5066 400.083 74.8748 400.073 76.303C404.72 76.2683 428.6 75.6989 431.448 76.8335C431.554 77.7039 431.664 78.5743 431.781 79.4437C435.782 80.7361 437.459 78.2459 439.954 80.533C440.382 82.2864 440.283 82.7043 440.174 84.4556C442.208 83.9525 442.043 83.6178 443.569 84.2977L444.845 87.0142L447.971 90.4653L439.582 90.7674C439.606 99.1104 440.196 120.624 439.384 127.665C438.748 122.852 440.269 101.937 438.122 99.8156C436.518 99.7745 435.855 99.7366 434.215 99.5019C433.411 98.22 433.01 95.8424 432.647 94.2658C431.292 92.9712 431.569 93.3985 429.113 93.268L428.5 93.0112C426.788 90.6916 424.513 91.1431 422.187 92.0587C411.964 92.2219 405.357 90.9073 395.401 89.0507C391.275 88.2814 379.113 89.8664 375.713 87.9046C375.277 86.7627 374.683 84.5324 373.535 84.4093C367.567 83.7683 356.879 84.0493 350.941 83.9557C303.644 83.0926 256.338 82.8632 209.035 83.2673C184.71 83.4157 158.767 84.5398 134.546 84.0167L134.629 89.5475C121.707 89.1023 111.502 89.3559 98.9589 92.2966C95.7383 93.0523 89.1003 91.9651 86.0155 93.2186C85.0324 103.722 78.5849 96.0213 77.6061 105.571C76.8357 113.088 79.5101 123.041 76.2326 129.645C75.9032 130.14 73.9908 130.889 73.3488 131.153C73.5014 166.342 73.1183 233.589 73.5772 271.594C73.8551 271.91 74.1319 272.225 74.4087 272.541C75.2223 272.826 77.2272 273.308 77.2946 273.855C78.2323 281.46 76.9683 291.903 77.9892 299.438C80.8741 301.919 84.241 304.625 86.6354 307.519L85.8944 307.876C84.7314 308.449 84.2073 308.886 83.1717 309.666C82.3055 309.121 82.6086 309.418 82.1613 308.892L81.7719 310.595C82.8791 311.895 82.878 311.542 84.883 312.107C80.4015 311.854 77.284 311.938 72.7763 312.131L72.831 318.596C68.7473 317.948 68.5768 318.424 66.8487 314.914C66.9044 313.882 66.9708 314.44 66.495 313.262L64.7679 313.323C64.0712 313.119 62.2114 312.642 62.0462 311.959C60.9653 307.485 62.9692 284.411 61.1715 281.642L58.4246 281.134L57.9888 280.489C57.2437 268.228 57.892 250.083 57.9394 237.373L57.8552 165.302C57.832 155.392 57.7731 145.456 57.7825 135.548C57.7847 132.783 57.2774 122.56 58.4709 121.005C59.6402 120.944 60.1612 120.891 61.3136 120.69C62.8071 117.038 60.2012 94.3753 62.2893 90.3485C63.5481 90.4011 64.047 90.4021 65.2994 90.2906L65.7225 89.4317C67.3149 86.2627 68.5958 84.1325 71.9101 83.0526C72.2805 82.359 72.3258 80.9003 72.4226 80.0215C73.914 79.6057 77.8587 79.6131 79.6827 79.5289C82.3791 77.7871 79.4311 79.0658 81.3119 76.4925C87.1669 75.7957 105.196 76.0999 111.53 76.3704Z" fill="#A6A5A5"/>
<path d="M79.6543 96.3339C80.4847 93.0407 81.2688 92.2292 84.2294 91.0557L84.783 90.841L85.1419 87.7414C88.3236 85.3502 104.575 88.7866 107.706 86.6658C108.077 84.8197 107.762 85.3481 108.72 83.8809C115.587 82.9958 125.654 84.5892 132.403 83.3747C134.268 81.9359 132.245 81.6739 133.957 79.1984C137.344 78.9206 141.033 78.8511 144.426 78.9868C163.231 79.7404 181.937 78.1943 200.656 77.9522C231.817 77.547 262.819 77.9859 294.027 77.8912C304.193 77.8596 318.067 77.386 328.199 78.7374C335.663 81.1139 373.081 77.8081 376.82 80.0772L376.976 82.9C378.648 84.3882 397.627 83.4378 401.736 83.4399C402.782 84.2861 402.462 84.4703 402.72 86.2711C405.155 87.5541 424.282 86.8216 428.388 86.7552L428.501 93.0112C426.789 90.6915 424.514 91.1431 422.188 92.0587C411.965 92.2219 405.358 90.9073 395.402 89.0507C391.276 88.2813 379.114 89.8664 375.714 87.9046C375.278 86.7626 374.684 84.5324 373.537 84.4093C367.568 83.7683 356.88 84.0493 350.942 83.9556C303.645 83.0926 256.339 82.8632 209.036 83.2673C184.711 83.4157 158.769 84.5398 134.547 84.0167L134.63 89.5475C121.708 89.1023 111.504 89.3559 98.96 92.2966C95.7394 93.0522 89.1014 91.965 86.0166 93.2185C83.9937 92.0787 84.9967 92.2366 82.9896 92.2808C81.8361 93.3649 81.8813 94.7362 81.6245 96.3865L80.8257 96.9285L79.6543 96.3339Z" fill="#848484"/>
<path d="M79.6541 96.335L80.8255 96.9297L81.6244 96.3877C81.8812 94.7374 81.8359 93.366 82.9894 92.2819C84.9965 92.2377 83.9935 92.0798 86.0164 93.2197C85.0334 103.723 78.5859 96.0224 77.607 105.572C76.8366 113.09 79.511 123.042 76.2336 129.646C75.9041 130.141 73.9917 130.89 73.3497 131.154C73.5023 166.343 73.1192 233.59 73.5781 271.595C73.856 271.911 74.1328 272.226 74.4096 272.542C75.2232 272.827 77.2281 273.309 77.2955 273.856C78.2333 281.461 76.9692 291.904 77.9901 299.439C80.875 301.92 84.2419 304.626 86.6363 307.52L85.8954 307.877C84.7324 308.45 84.2082 308.888 83.1726 309.667C82.3064 309.122 82.6095 309.419 82.1622 308.893C81.6002 307.604 81.9012 308.022 80.7929 307.141L78.9121 307.378C77.3629 306.562 78.0365 307.136 77.1134 305.308C75.7968 304.16 74.1075 304.349 72.2499 304.233C72.1931 300.483 72.9961 279.912 71.6963 278.269C70.307 278.11 69.4335 278.184 68.4115 277.262C67.9095 272.123 68.0852 263.625 68.0726 258.167L68.0715 224.244L68.3389 171.313C68.3273 166.221 67.4706 128.348 68.9609 126.921C69.6387 126.924 70.5996 127.022 71.2437 126.842C74.1601 126.03 70.6143 104.11 72.8466 100.362C74.0623 100.213 75.28 100.083 76.4998 99.9693L77.2387 99.0589C77.2534 97.2686 77.0208 97.8874 77.8333 96.4487L79.6541 96.335Z" fill="#848484"/>
<path d="M111.531 76.3704C111.644 74.859 111.726 74.2117 112.02 72.7267C115.897 70.4091 148.816 72.7341 155.037 71.8405C161.748 70.8764 156.592 70.8901 159.222 68.2336L285.161 68.1768L328.588 68.1231C332.824 68.1137 349.505 67.2717 351.737 69.0693C352.252 70.7533 351.955 70.3986 352.932 71.7247C365.463 72.8004 386.373 71.9563 399.884 72.0847L399.446 75.7936C397.062 77.244 364.149 76.0631 358.583 76.6483C354.997 77.0251 351.717 76.6514 350.769 72.6225C347.816 71.1259 237.449 71.8173 224.45 71.8594L184.839 72.0794C178.019 72.0763 166.097 71.6616 159.702 72.3636C157.552 74.7569 161.655 76.9272 155.183 76.7988C140.963 76.5167 125.636 77.3376 111.531 76.3704Z" fill="#848484"/>
<path d="M64.7679 313.324C64.0712 313.12 62.2114 312.643 62.0462 311.96C60.9653 307.486 62.9692 284.412 61.1715 281.643L58.4246 281.135L57.9888 280.49C57.2437 268.229 57.892 250.084 57.9394 237.374L57.8552 165.303C57.832 155.393 57.7731 145.457 57.7825 135.55C57.7847 132.784 57.2774 122.561 58.4709 121.006C59.6402 120.945 60.1612 120.892 61.3136 120.691C62.8071 117.04 60.2012 94.3764 62.2893 90.3495C63.5481 90.4022 64.047 90.4032 65.2994 90.2917L65.7225 89.4328C67.3149 86.2638 68.5958 84.1336 71.9101 83.0537C71.8974 84.0262 71.8817 85.2492 71.8638 86.7227C70.4271 89.2613 69.6483 88.5266 71.3586 90.7663C69.2694 90.6653 68.1653 90.2159 66.3045 91.2157C64.99 94.29 67.6296 120.195 65.3068 123.098C64.4553 123.327 62.8303 123.556 62.4872 124.142C61.8578 125.219 61.8315 128.995 61.8336 130.314C61.8652 163.289 61.9125 196.314 61.9251 229.288L61.9915 262.949C62.0136 267.064 61.9578 277.228 62.5356 280.841C65.6152 282.629 63.5544 279.101 66.0299 281.582C65.9572 291.413 66.8645 302.642 66.4624 312.083C65.5646 312.954 65.9014 312.712 64.7679 313.324Z" fill="#848484"/>
<path d="M72.4229 80.0223C73.9142 79.6065 77.8589 79.6139 79.6829 79.5297C82.3794 77.7878 79.4314 79.0666 81.3122 76.4933C87.1671 75.7965 105.196 76.1007 111.53 76.3712L111.448 79.235C107.293 82.663 86.8356 78.9256 82.4709 81.3052C78.1105 83.6838 81.129 85.2058 73.2312 83.4039C72.5186 81.9199 72.5934 81.6378 72.4229 80.0223Z" fill="#848484"/>
<path d="M400.072 76.3042C404.719 76.2695 428.6 75.7001 431.448 76.8347C431.553 77.7051 431.664 78.5755 431.78 79.4449C435.781 80.7373 437.459 78.2471 439.953 80.5342C440.381 82.2876 440.282 82.7055 440.173 84.4568L439.752 84.8736C437.489 82.4402 433.075 85.3546 430.646 83.5064C430.644 81.6866 430.845 82.1245 430.254 80.5416C423.129 79.3007 407.964 81.3025 400.798 79.7816C399.922 78.5544 400.2 78.0851 400.072 76.3042Z" fill="#848484"/>
<path d="M66.8496 314.915L67.4906 313.214C69.2167 312.096 70.6901 312.253 72.7772 312.132L72.8319 318.596C68.7483 317.949 68.5778 318.425 66.8496 314.915Z" fill="#848484"/>
<path d="M440.174 84.456C442.208 83.9529 442.043 83.6182 443.569 84.2981L444.846 87.0146C442.852 87.3124 441.215 87.9649 439.687 86.6641L439.753 84.8727L440.174 84.456Z" fill="#848484"/>
<path d="M439.582 90.7689L447.971 90.4668C447.887 98.1605 447.424 112.152 447.968 119.469C449.706 121.238 451.188 119.561 451.267 121.368C451.641 130.05 451.431 139.303 451.549 147.987C451.663 156.458 453.822 150.01 453.832 154.514C453.854 164.937 453.828 175.58 453.814 185.975L453.779 246.154C453.762 248.101 453.693 250.047 453.57 251.99C451.725 253.663 451.784 253.067 451.654 255.808C451.251 264.322 452.34 274.336 451.532 282.636C449.599 284.337 449.52 282.022 448.015 284.017C447.432 293.386 448.191 303.087 447.783 312.653L439.025 312.581L438.998 319.506C436.925 319.505 431.691 319.236 430.181 320.017C430.114 321.465 430.168 322.479 429.667 323.85C425.638 324.617 417.819 322.728 414.077 324.585C413.629 326.61 413.627 327.051 413.596 329.149C407.909 329.183 360.306 329.203 358.698 330.043C358.548 331.243 358.438 332.304 358.342 333.509C356.287 334.509 322.207 334.221 317.128 334.231L241.386 334.326L180.194 334.251C172.615 334.227 159.054 334.68 152.041 334.076C150.225 331.586 152.368 331.584 150.607 329.572C142.168 328.983 103.234 330.381 99.0422 328.779C98.4507 327.391 98.5896 326.501 98.6054 325C96.4583 322.189 84.4421 325.899 80.388 323.312C80.1796 321.889 80.1775 321.442 80.1869 319.995C78.0599 318.491 74.9992 319.965 72.8311 318.597L72.7764 312.133C77.2842 311.939 80.4016 311.856 84.8831 312.109C82.8781 311.543 82.8792 311.897 81.772 310.596L82.1614 308.893C82.6087 309.419 82.3056 309.123 83.1718 309.668C84.2074 308.888 84.7316 308.45 85.8946 307.878L86.6355 307.521C91.2054 315.258 103.452 305.956 105.469 313.328C108.094 315.135 130.943 314.005 136.042 313.887C138.435 318.352 137.901 317.462 142.282 317.954C148.04 318.6 184.753 316.85 187.175 318.418L187.888 320.56C188.809 321.008 310.059 321.507 319.811 320.789L320.385 320.387C321.686 319.493 323.038 318.494 324.609 318.154C331.402 316.682 369.782 319.518 372.054 317.034L372.38 314.801C375.976 312.63 402.776 316.069 404.736 313.452L405.035 311.211C407.442 309.932 419.392 310.504 422.789 310.553C425.744 310.722 426.879 310.885 429.211 308.911C431.063 308.561 431.501 308.742 432.849 307.664L432.756 304.074C434.536 303.437 436.528 302.977 438.371 302.491C438.479 298.823 437.662 279.072 439.095 277.419C440.665 277.421 440.814 277.458 442.321 277.104C443.201 275.783 442.813 267.57 442.808 265.568L442.792 239.217C442.777 203.652 442.769 168.059 442.722 132.497C442.719 130.378 443.033 129.454 441.987 128.026L439.384 127.667C440.196 120.626 439.606 99.1119 439.582 90.7689Z" fill="#E1E0E0"/>
<path d="M86.635 307.519C91.2049 315.255 103.452 305.954 105.468 313.326C108.093 315.133 130.943 314.003 136.042 313.885C138.434 318.35 137.9 317.459 142.282 317.952C148.039 318.598 184.753 316.848 187.175 318.416L187.887 320.558C188.808 321.006 310.059 321.505 319.811 320.787L320.385 320.385C321.685 319.491 323.038 318.492 324.608 318.152C331.402 316.679 369.782 319.516 372.053 317.032L372.379 314.799C375.976 312.627 402.775 316.067 404.736 313.449L405.035 311.209C407.442 309.93 419.392 310.501 422.788 310.551C425.744 310.72 426.878 310.882 429.21 308.909C429.148 311.06 429.057 313.267 429.054 315.415C424.608 315.389 410.095 314.984 406.542 315.634C404.717 317.901 406.887 318.292 404.9 319.856C400.966 320.087 377.489 319.396 376.01 320.574L375.845 322.769C371.247 324.394 329.297 321.988 326.003 323.785L325.726 326.259C323.67 327.548 305.726 326.999 302.387 326.979L216.573 326.903C212.887 326.909 188.535 327.451 186.842 326.583C186.243 325.217 186.273 325.143 186.037 323.651C178.735 321.807 138.04 325.648 135.549 322.626C135.451 320.824 135.789 320.469 134.826 319.594C127.661 318.615 113.465 320.359 105.682 319.451C105.446 319.185 105.211 318.921 104.976 318.656L104.814 316.313C100.641 313.721 86.0361 318.108 84.9426 314.024C84.87 313.751 84.8826 312.457 84.8826 312.106C82.8776 311.541 82.8787 311.895 81.7715 310.594L82.1609 308.891C82.6082 309.417 82.3051 309.12 83.1713 309.666C84.2069 308.886 84.7311 308.448 85.8941 307.875L86.635 307.519Z" fill="#848484"/>
<path d="M429.114 93.2686C431.571 93.3991 431.293 92.9718 432.649 94.2663C433.012 95.8429 433.413 98.2205 434.217 99.5024C435.857 99.7371 436.52 99.775 438.124 99.8161C440.271 101.938 438.75 122.853 439.385 127.666L441.988 128.025C443.034 129.453 442.72 130.377 442.723 132.496C442.77 168.058 442.779 203.651 442.793 239.216L442.809 265.567C442.814 267.569 443.202 275.782 442.322 277.103C440.815 277.457 440.666 277.42 439.096 277.418C437.664 279.071 438.48 298.822 438.372 302.49C436.529 302.976 434.538 303.436 432.757 304.073L432.815 300.3C433.059 295.958 432.622 276.84 434.01 274.486L436.677 274.222L437.305 273.429C437.735 260.21 437.775 132.89 436.83 130.542C436.407 130.244 434.457 128.829 434.371 128.414C433.442 123.863 435.183 104.086 432.984 101.212C431.704 101.145 430.982 101.247 429.878 100.521C429.323 97.147 430.604 95.9071 429.114 93.2686Z" fill="#848484"/>
<path d="M427.545 303.148L428.306 302.415C430.142 303.63 430.565 304.196 432.756 304.074L432.85 307.664C431.502 308.742 431.064 308.56 429.211 308.911C426.879 310.884 425.744 310.722 422.789 310.553C423.422 308.221 422.214 308.679 423.781 306.206C426.044 305.349 426.29 305.206 427.545 303.148Z" fill="#6B8786"/>
<path d="M422.187 92.0598C424.513 91.1442 426.788 90.6927 428.5 93.0123L429.113 93.2691C430.602 95.9077 429.321 97.1476 429.877 100.522C426.113 96.1635 423.649 99.5146 422.187 92.0598Z" fill="#5B8A82"/>
<path d="M427.545 303.147C427.405 301.511 427.265 301.483 427.889 300.01C429.61 299.324 430.732 299.908 432.813 300.3L432.755 304.073C430.564 304.195 430.141 303.629 428.306 302.414L427.545 303.147Z" fill="#5B8A82"/>
<path d="M163.204 91.8847C178.733 91.1901 347.831 91.2185 349.287 91.8584C349.581 91.9868 349.784 92.2636 350.033 92.4667C350.032 92.8814 349.979 96.0199 350.509 96.1241C356.353 97.2787 398.592 94.7727 401.227 97.0198L401.343 99.2668C402.544 100.455 404.279 99.6089 406.731 99.7605C411.236 100.039 407.611 101.866 409.572 104.158C412.081 104.218 414.589 104.264 417.098 104.298C419.086 105.547 416.844 107.134 418.749 107.604C420.431 108.018 421.197 106.892 422.71 108.451C422.622 109.957 422.498 110.435 422.856 111.906C423.895 112.208 424.383 112.161 425.457 112.049C427.706 116.319 425.28 131.422 426.708 136.423C427.249 138.317 427.285 134.997 429.34 137.392L429.425 230.564C429.437 235.707 429.958 265.492 428.715 267.398C425.029 267.984 425.267 267.885 425.165 271.561C424.99 277.911 426.082 284.785 425.131 291.052C423.791 292.879 423.891 290.77 421.264 292.148L420.973 294.764C419.285 296.876 419.581 294.081 417.115 295.934C417.068 297.697 417.247 297.775 416.583 299.353C414.098 300.124 408.459 299.781 405.338 299.888C403.132 301.364 405.622 301.698 403.728 304.177C397.602 304.762 387.65 304.501 381.248 304.525L345.127 304.797C342.017 304.803 327.786 304.009 326.301 305.638C326.378 307.156 326.545 307.548 325.915 308.922C323.459 309.602 313.729 309.302 310.783 309.314L269.236 309.301L214.281 309.337C205.388 309.358 196.452 309.393 187.471 309.361C182.931 309.345 185.373 305.033 183.273 304.78C181.74 304.595 171.699 304.883 169.942 304.736C163.897 304.227 109.707 305.73 106.859 303.61C106.745 302.095 106.723 301.747 106.356 300.287C104.344 299.389 99.3031 300.587 96.6319 300.045C93.3839 299.386 96.2898 298.579 94.6911 296.249C93.1576 296.263 92.1588 296.423 90.7832 295.756L90.3264 293.681C88.8866 292.268 88.9477 292.649 86.6911 292.044C84.2473 287.963 87.5331 270.171 85.1966 267.817C83.7726 267.873 83.5695 268.05 82.3728 267.379C81.5119 263.916 81.7055 226.496 81.8255 220.622C82.3833 193.5 81.0256 164.52 81.8739 137.664C83.0011 136.476 82.9843 136.876 85.1745 136.733C86.9111 134.702 84.5914 114.55 86.5238 112.227L88.8793 112.202C90.7032 110.284 88.5804 110.643 90.178 108.102L93.3765 107.919C94.4279 106.829 94.047 106.865 94.0228 104.78C96.3372 103.122 98.9242 105.159 101.802 103.262C101.803 101.813 101.687 101.291 102.196 99.9383C104.68 98.8742 107.394 100.396 109.922 99.3637C109.988 98.3449 110.047 97.8144 110.223 96.8093C116.41 94.9569 156.291 97.8618 160.537 95.7052C160.589 94.0381 160.471 93.8402 161.246 92.3341L163.204 91.8847Z" fill="#B0F5D9"/>
<path d="M207.525 199.021C214.363 199.088 221.201 199.093 228.039 199.036L228.023 212.006C230.451 212.053 234.192 212.452 236.177 211.401C237.782 209.294 237.287 209.403 237.658 206.321C238.221 206.317 238.783 206.321 239.346 206.327C245.122 206.422 249.566 212.755 253.881 217.283C253.978 219.223 254.242 221.003 253.601 222.811C252.027 224.138 251.029 223.978 248.815 224.425C248.636 227.118 248.681 230.005 248.665 232.717L261.239 232.834L261.178 252.599L248.035 252.914L247.969 260.96L248.551 261.106C251.521 261.874 252.198 261.983 253.737 264.565C254.694 270.6 246.72 273.007 244.742 278.729C241.689 278.883 240.207 279.323 237.842 277.686C235.688 272.362 233.127 273.506 227.957 273.639C227.975 277.758 228.071 282.064 227.783 286.156C221.142 286.054 214.501 286.033 207.861 286.093L207.613 273.112C193.353 272.914 201.323 273.585 197.491 278.678C192.189 280.586 185.435 273.131 182.114 269.676C181.389 268.921 181.657 264.224 181.785 262.984C183.337 261.579 183.81 261.885 186.206 261.352L186.514 253.074L173.491 253.117C173.635 246.547 173.462 239.33 173.437 232.71L186.054 232.655C186.099 230.629 186.105 229.013 186.016 226.99C184.97 224.775 183.615 224.81 181.754 223.116C180.808 221.187 181.165 218.7 181.237 216.473C183.233 214.766 187.503 210.689 189.871 208.932C189.967 208.258 190.063 207.584 190.158 206.91C195.007 203.602 196.632 205.64 198.339 210.333L198.61 211.096C201.03 212.042 204.668 211.792 207.397 211.812L207.525 199.021Z" fill="#313131"/>
<path d="M209.309 224.781C212.922 224.683 223.761 224.005 226.503 225.354L227.109 227.621C228.938 229.137 228.76 227.877 231.775 228.707C233.123 230.67 231.444 232.459 232.648 234.707L234.858 235.063C238.208 240.519 234.604 251.227 230.585 255.607C228.957 257.384 229.764 256.824 227.272 257.068C225.047 258.869 227.667 257.498 225.807 260.541C222.484 260.527 209.862 261.231 207.877 259.863C207.881 258.539 208.033 257.907 207.419 256.762L204.685 256.321C200.384 252.021 196.984 239.723 200.209 234.644L202.386 234.449L202.89 233.818C202.507 224.5 207.813 232.039 209.309 224.781Z" fill="#B0F5D9"/>
<path d="M147.451 142.951L147.742 143.219C148.28 145.179 148.039 152.63 148.018 155.115L156.828 155.147C156.958 153.299 156.801 151.526 157.888 150.159C164.253 147.361 167.595 154.048 170.73 158.492C172.085 158.703 172.194 158.641 173.395 159.252C173.75 161.037 173.571 164.047 173.336 165.92C172.976 168.762 172.587 166.182 169.634 168.442C168.438 170.726 168.792 173.27 168.826 175.952L181.145 176.073L181.217 195.659C177.123 195.894 172.203 195.796 168.046 195.821C167.932 206.048 168.455 200.858 173.951 207.684C177.718 212.364 165.591 216.662 164.026 221.444C162.306 222.309 159.482 221.959 157.434 221.897C157.166 219.257 157.46 218.729 155.985 217.032C153.877 215.979 150.441 216.291 147.92 216.288L147.884 228.417L127.96 228.449L127.859 216.373L118.896 216.406L117.918 221.681C106.605 221.797 111.602 218.443 103.487 213.071L102.232 213.615C101.471 212.068 101.711 208.98 101.689 207.034C107.276 202.772 107.434 203.145 107.386 196.056L94.957 195.921L94.9833 175.913L107.082 175.863C107.137 173.191 107.351 170.857 106.734 168.266C102.12 166.411 99.9974 164.859 102.256 159.566C103.764 158.318 105.648 156.808 107.032 155.554C108.993 153.778 109.731 150.613 112.851 149.94C114.403 149.605 116.938 149.562 118.346 150.339C118.223 156.76 122.787 155.428 127.852 155.292L127.967 143.077C134.462 143.091 140.956 143.048 147.451 142.951Z" fill="#313131"/>
<path d="M131.388 167.681C135.32 167.544 140.108 167.214 143.986 167.6C147.213 167.922 144.732 169.396 146.688 172.05C148.484 172.354 149.988 172.559 151.799 172.76C153.038 174.803 151.756 175.893 152.762 178.991C153.929 179.326 154.19 179.32 155.393 179.365C158.032 183.358 154.95 193.382 152.598 197.32C151.687 198.844 150.344 198.69 148.747 199.024C147.304 200.34 147.751 199.799 147.59 202.393C146.424 203.452 146.506 203.095 144.498 203.195C141.381 203.167 131.113 203.93 129.103 202.568C129.113 200.893 129.297 201.482 128.631 200.05C127.11 199.833 126.535 199.743 125.01 199.324C120.919 195.034 116.791 182.235 120.524 177.331C122.034 177.049 122.794 177.041 124.043 176.129C124.302 174.564 124.312 173.941 124.364 172.387C126.769 170.442 127.222 172.494 130.058 170.812C130.034 169.465 129.966 169.377 130.334 168.104L131.388 167.681Z" fill="#B0F5D9"/>
<path d="M201.495 111.271L217.498 111.289L217.519 121.541C219.719 121.415 223.672 121.5 225.317 120.603L225.518 117.688C229.409 113.668 236.423 123.006 239.224 125.872L239.221 125.421C239.204 127.235 239.381 128.716 238.624 130.331C236.996 131.637 236.867 131.645 234.78 131.755C233.914 133.492 234.256 136.14 234.315 138.182L244.865 138.213L244.866 154.815L234.377 154.848C234.351 157.137 234.096 159.696 234.892 161.758C236.75 163.255 235.706 162.876 238.167 162.846C242.199 168.99 233.637 170.722 231.205 174.637C230.35 176.011 231.473 175.168 229.611 176.056C228.147 176.012 226.948 176.148 225.707 175.436C225.557 173.654 225.711 173.646 224.61 172.296C222.337 171.104 220.119 171.461 217.469 171.506L217.468 181.138L201.774 181.162L201.733 171.083C198.669 171.039 195.387 170.359 193.344 172.702C193.314 174.237 193.389 174.062 193.054 175.527C191.561 176.217 189.07 176.17 187.997 175.979C186.151 176.133 182.597 168.334 182.38 168.296C180.321 167.931 178.574 167.465 179.927 162.699C181.912 162.171 181.847 162.23 183.507 161.05C184.833 159.153 184.506 157.089 184.526 154.652L174.371 154.588L174.354 137.926L184.877 137.91C184.93 135.903 185.23 133.793 184.316 132.085C182.613 130.742 183.078 131.159 180.635 130.795C179.745 129.218 180.127 127.802 180.178 125.747C183.226 123.028 187.265 116.761 191.407 116.22C193.468 115.951 193.282 119.672 194.992 121.483C197.118 121.542 199.245 121.571 201.372 121.57L201.495 111.271Z" fill="#313131"/>
<path d="M203.551 130.762C206.873 130.643 211.578 130.341 214.741 130.75C215.84 131.75 215.495 131.857 215.735 133.786C217.199 135.001 217.799 134.601 220.187 134.767C222.029 136.526 219.825 136.344 221.249 139.268C222.385 139.388 222.911 139.456 224.02 139.712C224.856 142.395 224.308 149.4 224.136 152.327C222.014 154.148 220.347 156.311 218.32 157.964C216.19 159.702 216.799 158.023 216.383 161.223C212.615 161.316 206.571 161.78 202.991 160.808C206.897 161.869 194.908 152.931 195.712 153.555C194.724 151.212 194.508 141.892 195.435 139.505C196.651 139.306 196.745 139.309 197.874 138.841L198.146 135.259C198.869 134.624 198.739 134.549 199.498 134.396C204.826 133.318 201.156 133.387 203.551 130.762Z" fill="#B0F5D9"/>
<path d="M129.972 109.24C130.983 109.142 130.768 109.197 131.804 109.412C135.771 117.088 123.678 119.414 119.085 120.381C114.397 131.813 111.555 130.906 103.667 140.22C102.64 141.432 101.73 145.774 100.767 147.262C100.413 147.812 98.6477 147.786 97.7625 147.885C96.6448 147.585 96.9027 147.65 95.8723 147.078C94.9166 143.547 94.9556 120.32 94.8945 115.227C95.2997 115.277 95.706 115.325 96.1122 115.37C98.0457 115.585 99.0792 115.918 100.419 114.851C100.975 112.102 101.074 111.528 103.134 109.608C111.647 109.746 121.533 109.773 129.972 109.24Z" fill="#E1E0E0"/>
<path d="M311.596 116.105L319.567 116.004L319.688 123.868L326.977 124.095L326.797 133.206C324.551 133.31 322.226 133.503 319.975 133.656L319.681 141.048L308.535 141.01L308.631 133.736H299.106C299.168 135.686 299.4 137.042 298.655 138.833C296.007 141.451 291.575 140.725 287.515 140.752C285.583 140.842 285.005 140.984 283.14 140.352C282.084 138.448 282.52 136.909 282.567 134.461L292.772 134.377L292.767 122.323C289.291 122.226 285.019 123.378 282.696 120.693C282.66 118.91 282.577 119.009 283.58 117.554C286.899 115.361 294.89 116.331 299.443 116.35L299.484 123.669L308.065 123.668C308.291 120.75 307.611 118.308 309.362 116.266L311.596 116.105Z" fill="#48CB9D"/>
<path d="M386.033 114.691L404.698 114.612C404.202 122.429 405.26 119.264 409.671 121.148C410.275 124.654 410.32 131.876 409.919 135.596C409.79 136.79 409.338 136.812 408.464 137.402C406.53 137.133 407.193 136.945 405.579 137.582C404.809 139.366 405.035 140.448 405.122 142.386C398.793 142.666 391.548 142.565 385.151 142.613C385.245 140.853 385.545 138.816 384.899 137.257C382.936 137.042 382.901 137.167 381.333 135.854C380.39 133.536 380.346 122.987 381.187 120.954C383.119 120.756 383.308 120.849 385.091 119.969C386.398 117.956 385.974 117.363 386.033 114.691Z" fill="#248171"/>
<path d="M373.331 229.712C383.558 229.911 395.102 229.618 405.418 229.562C405.805 236.725 405.814 243.904 405.443 251.068L373.292 251.092L373.331 229.712Z" fill="#48CB9D"/>
<path d="M371.136 261.047L403.382 261.043L403.749 280.118C393.134 280.312 381.972 280.103 371.316 280.07C371.356 273.823 371.198 267.315 371.136 261.047Z" fill="#48CB9D"/>
<path d="M387.655 154.653C400.786 154.896 409.214 151.855 406.572 170.514C405.053 171.878 405.96 171.423 403.585 171.525C402.4 172.95 402.742 173.28 402.453 175.5C399.67 175.588 391.253 176.131 388.968 175.045C389.059 173.623 389.273 173.072 388.581 171.865C387.104 171.494 386.335 171.606 384.838 171.661L384.26 170.943C383.959 168.045 383.799 162.017 384.639 159.27C387.982 158.129 387.389 158.05 387.655 154.653Z" fill="#48CB9D"/>
<path d="M353.523 118.051C356.798 117.972 362.647 117.085 364.829 119.736C364.874 121.265 364.869 121.324 365.268 122.795C366.713 123.798 368.261 123.394 370.126 123.264C370.144 126.639 370.305 131.008 369.857 134.327C369.737 135.209 369.289 135.116 368.152 135.711C366.624 135.504 367.08 135.426 365.638 135.702C364.902 137.41 365.144 138.345 365.281 140.199C362.714 140.33 356.482 141.095 354.694 139.673C354.497 137.251 354.556 136.813 352.922 135.385C351.324 135.392 350.972 135.468 349.398 135.076C348.845 132.862 349.19 126.554 349.503 124.174C351.297 122.773 350.273 123.267 352.848 123.037C353.778 121.43 353.477 120.115 353.523 118.051Z" fill="#248171"/>
<path d="M102.184 262.384C120.904 261.845 139.908 262.511 158.492 261.991L158.491 268.355C148.713 268.464 137.24 268.59 127.534 267.918C120.293 267.794 110.546 268.731 103.465 267.556C102.139 267.336 102.138 266.817 101.623 265.838C101.695 264.275 101.605 263.844 102.184 262.384Z" fill="#48CB9D"/>
<path d="M102.184 262.384L102.701 262.436C109.705 263.077 120.882 261.921 127.125 262.843C127.786 264.668 127.587 265.979 127.534 267.918C120.293 267.794 110.546 268.731 103.465 267.556C102.139 267.336 102.138 266.817 101.623 265.838C101.695 264.275 101.605 263.844 102.184 262.384Z" fill="#354240"/>
<path d="M112.847 236.227C118.19 236.167 154.693 235.474 158.039 236.456C158.994 238.015 158.592 238.321 158.511 240.561C155.657 243.115 145.015 241.963 140.907 241.852C128.232 241.511 114.352 242.88 101.786 241.977C101.691 239.38 101.329 238.47 102.789 236.677C105.214 235.614 109.802 236.181 112.847 236.227Z" fill="#48CB9D"/>
<path d="M101.786 241.978C101.691 239.381 101.329 238.472 102.789 236.678C105.214 235.615 109.802 236.182 112.847 236.228C112.814 238.89 113.251 239.165 112.075 241.073C109.125 242.608 105.937 241.422 101.786 241.978Z" fill="#354240"/>
<path d="M299.449 229.921C303.581 229.747 307.996 229.839 312.155 229.854C312.224 236.99 312.174 244.125 312.004 251.258C307.841 251.408 303.438 251.338 299.254 251.34L299.449 229.921Z" fill="#248171"/>
<path d="M319.762 229.76L330.571 229.627C330.481 235.475 331.243 244.888 330.286 250.201C329.151 251.644 329.909 251.109 327.63 251.388L317.676 251.238C317.933 246.961 316.972 232.475 318.392 230.068L319.762 229.76Z" fill="#248171"/>
<path d="M336.536 229.661L349.082 229.604C349.103 236.832 349.183 244.069 348.944 251.292C344.876 251.5 340.602 251.401 336.512 251.372L336.536 229.661Z" fill="#248171"/>
<path d="M354.933 229.577L367.41 229.622L367.269 251.181L354.896 251.22C354.964 244.007 354.977 236.792 354.933 229.577Z" fill="#48CB9D"/>
<path d="M283.519 229.759L293.316 229.687C293.329 233.196 293.634 248.53 292.847 251.015L291.719 251.38L281.684 251.325C281.628 247.662 281.083 232.738 282.176 230.117L283.519 229.759Z" fill="#248171"/>
<path d="M352.72 261.184L364.898 261.097L364.881 280.118L352.645 280.11L352.72 261.184Z" fill="#2A9C84"/>
<path d="M298.835 159.788C302.354 159.723 313.796 157.515 309.543 165.204C307.859 166.334 305.183 165.944 303.023 165.899L302.82 173.254L293.423 173.298C290.236 173.385 283.854 174.125 281.791 172.185C281.735 170.636 281.435 169.259 282.29 168.086C285.725 167.445 293.954 167.626 297.8 167.555C297.698 165.023 297.529 162.93 297.815 160.399L298.835 159.788Z" fill="#2A9C84"/>
<path d="M128.048 273.703L158.428 273.574L158.036 279.65C149.498 279.764 136.188 280.239 128.036 279.547L128.048 273.703Z" fill="#48CB9D"/>
<path d="M127.666 247.371C131.309 247.357 156.371 246.511 158.25 248.081C158.337 249.986 158.516 250.831 157.872 252.647C155.356 253.799 131.661 253.194 127.604 252.783L127.666 247.371Z" fill="#48CB9D"/>
<path d="M101.962 273.758L128.048 273.702L128.036 279.547L102.005 279.488L101.962 273.758Z" fill="#354240"/>
<path d="M282.227 194.883L288.711 194.87C288.804 202.203 288.797 209.535 288.69 216.868L282.221 216.893L282.227 194.883Z" fill="#248171"/>
<path d="M101.805 252.792C101.772 250.638 101.638 249.706 102.188 247.662C107.227 246.996 121.895 247.36 127.664 247.37L127.603 252.781C119.165 252.634 110.279 252.785 101.805 252.792Z" fill="#354240"/>
<path d="M364.857 195.067C365.747 195.884 365.316 201.584 365.264 202.956C365.078 207.821 366.91 211.593 364.73 216.094C362.641 217.316 362.624 216.853 359.75 216.805L359.459 216.48C358.868 214.211 359.05 198.292 359.32 195.699C361.093 195.019 362.881 195.154 364.857 195.067Z" fill="#48CB9D"/>
<path d="M295.386 194.804C297.622 194.757 299.135 194.552 301.232 195.26C301.873 197.56 301.553 213.451 301.585 216.742C299.792 216.821 297.1 217.102 295.624 216.272C295.036 211.655 295.362 199.987 295.386 194.804Z" fill="#248171"/>
<path d="M308.044 194.865C309.882 194.825 312.631 194.498 313.881 195.459C314.476 200.451 314.202 211.408 314.2 216.863C312.201 216.915 310.295 217.148 308.454 216.432C307.927 213.206 308.129 199.282 308.044 194.865Z" fill="#248171"/>
<path d="M372.202 194.896L378.391 194.914C378.247 202.17 378.26 209.429 378.429 216.685L372.163 216.927C372.387 209.86 372.218 202.024 372.202 194.896Z" fill="#48CB9D"/>
<path d="M308.139 167.603C313.575 168.221 321.698 167.874 327.526 168.035C329.74 168.073 329.462 167.71 330.861 168.796C331.193 170.708 331.036 171.64 330.897 173.545C327.281 173.974 312.326 173.583 308.607 173.058C307.821 171.759 308.107 169.271 308.139 167.603Z" fill="#354240"/>
<path d="M308.139 167.603C313.575 168.221 321.698 167.874 327.526 168.035C323.827 168.361 318.186 167.566 316.244 169.708C316.02 171.554 315.839 170.721 316.781 172.297C320.485 174.407 325.843 172.762 330.897 173.545C327.281 173.974 312.326 173.583 308.607 173.058C307.821 171.759 308.107 169.271 308.139 167.603Z" fill="#48CB9D"/>
<path d="M337.973 194.959L338.844 194.98C340.245 197.048 339.745 212.869 339.418 216.059C338.423 217.169 337.268 216.951 335.356 217.253L334.146 216.493C333.447 213.5 333.554 199.425 333.793 195.88C335.142 194.881 335.996 195.152 337.973 194.959Z" fill="#2A9C84"/>
<path d="M346.369 195.164C348.349 195.142 350.223 194.947 352.052 195.655C352.599 199.461 352.29 212.26 352.272 216.768C349.91 216.881 349.057 217.065 346.836 216.443C346.159 214.121 346.373 198.397 346.369 195.164Z" fill="#48CB9D"/>
<path d="M386.539 194.697C388.545 194.666 389.674 194.514 391.001 195.639C391.598 201.073 391.051 208.49 391.049 214.084C391.047 216.072 391.003 215.892 389.909 216.845C388.333 216.793 386.856 216.984 385.663 216.094C385.105 212.405 385.069 199.713 385.31 195.671L386.539 194.697Z" fill="#48CB9D"/>
<path d="M320.884 194.915L326.915 194.952C326.729 202.25 326.626 209.549 326.604 216.848C324.481 216.898 323.227 217.097 321.245 216.456C320.667 212.624 320.895 199.475 320.884 194.915Z" fill="#248171"/>
<path d="M352.157 153.766C352.616 154.034 353.381 154.62 353.837 154.95C354.952 158.328 354.59 169.009 354.253 173.027C354.105 174.795 353.818 174.535 352.463 175.546C350.95 175.112 350.643 174.998 349.225 174.32C349.037 171.467 348.678 156.385 349.399 154.642L352.157 153.766Z" fill="#48CB9D"/>
<path d="M361.469 152.708C363.136 152.68 363.806 152.737 365.419 152.901C366.756 154.486 366.11 171.405 365.846 174.507C364.283 174.586 362.65 174.889 361.335 174.204C360.812 170.107 361.378 157.531 361.469 152.708Z" fill="#48CB9D"/>
<path d="M90.9395 151.521C93.5675 151.577 95.9735 151.886 98.5794 152.172C98.0532 154.934 98.1027 160.49 98.0427 163.531C96.4524 163.784 92.9255 163.709 91.1636 163.726L90.9395 151.521Z" fill="#E1E0E0"/>
<path d="M311.286 273.732V279.967L299.529 279.998L299.515 273.727L311.286 273.732Z" fill="#2A645F"/>
<path d="M334.906 273.789L346.932 273.764L346.907 279.962C342.754 279.89 338.622 281.051 335.601 279.228C334.435 277.647 334.814 275.823 334.906 273.789Z" fill="#248171"/>
<path d="M281.555 273.692L293.307 273.686L293.271 279.884L281.602 279.96L281.555 273.692Z" fill="#2A645F"/>
<path d="M317.261 273.757C321.379 273.818 325.542 272.602 328.489 274.567C329.501 276.109 329.148 278.045 329.065 279.972L317.353 279.982L317.261 273.757Z" fill="#248171"/>
<path d="M335.014 261.829C339.177 261.986 343.052 260.936 346.328 262.667C347.358 264.574 346.935 264.802 346.852 267.357C342.792 267.486 338.992 268.668 335.654 266.878C334.598 265.019 334.989 264.195 335.014 261.829Z" fill="#248171"/>
<path d="M317.091 262.041C321.043 262.131 325.491 261.04 328.545 262.816C329.566 264.287 329.178 265.661 329.036 267.536C324.88 267.584 321.145 268.726 317.782 266.892C316.633 264.936 317.074 264.729 317.091 262.041Z" fill="#248171"/>
<path d="M299.481 262.105C303.815 262.181 307.334 261.021 310.677 262.838C311.728 264.867 311.312 264.968 311.243 267.619C307.323 267.568 303.433 268.568 300.192 266.866C299.035 264.948 299.474 264.771 299.481 262.105Z" fill="#2A645F"/>
<path d="M281.348 262.117C285.707 262.237 289.182 261.074 292.584 262.791C293.676 264.867 293.238 264.873 293.108 267.631L281.611 267.541L281.348 262.117Z" fill="#2A645F"/>
<path d="M372.344 163.482C374.868 163.309 375.462 162.956 377.095 164.242C378.177 166.711 377.56 171.246 377.479 174.321C374.88 174.332 374.633 174.783 372.871 173.61C371.423 170.596 372.152 167.07 372.344 163.482Z" fill="#48CB9D"/>
<path d="M322.047 159.578C324.792 159.559 327.881 158.868 330.21 159.869C331.557 161.605 331.091 161.373 331.114 164.156C328.571 164.288 325.114 164.793 322.94 163.831C321.62 162.155 322.084 162.29 322.047 159.578Z" fill="#2A645F"/>
<path d="M372.233 153.734C374.142 153.714 375.004 153.615 376.889 154.088C377.996 155.839 377.567 156.096 377.547 158.609C375.624 158.64 374.976 158.713 373.051 158.289C371.867 156.619 372.298 156.251 372.233 153.734Z" fill="#48CB9D"/>
<path d="M218.665 363.848C218.64 362.085 218.633 361.264 218.349 359.48C216.547 357.088 214.948 358.203 213.629 356.006C213.813 354.324 213.722 354.385 214.592 352.963L216.249 352.805C219.098 350.603 215.665 352.327 217.258 349.562C223.844 348.616 219.671 347.816 221.899 345.761C227.276 345.134 285.979 344.972 287.809 345.876C287.759 347.356 287.615 347.563 288.15 348.904C292.559 348.951 290.574 350.061 293.679 352.725C295.831 354.574 295.296 354.727 295.38 357.464C295.982 359.514 295.966 359.485 295.966 361.63C294.279 364.531 293.287 365.031 290.881 367.398L287.968 367.952C287.997 369.891 288.197 371.146 287.059 372.354C282.015 372.913 224.589 372.624 222.925 371.985C221.957 368.837 221.786 368.424 218.863 366.912C217.924 365.252 218.186 366.195 218.665 363.848Z" fill="#848484"/>
<path d="M295.379 357.465C295.981 359.515 295.965 359.486 295.965 361.631C294.278 364.532 293.287 365.032 290.881 367.399L287.967 367.953C287.997 369.893 288.197 371.147 287.058 372.355C282.015 372.914 224.589 372.625 222.925 371.986C221.957 368.838 221.785 368.425 218.862 366.913C217.923 365.253 218.186 366.196 218.664 363.849C220.962 363.918 220.507 363.558 222.045 364.696L222.951 367.471C226.167 368.748 279.82 367.748 287.669 367.883C287.685 366.409 287.529 365.496 288.316 364.265C289.77 364.033 289.807 364.141 290.98 363.307C292.027 361.404 291.901 360.917 291.776 358.744C293.133 357.537 293.267 357.866 295.379 357.465Z" fill="#E1E0E0"/>
<path d="M224.026 358.265C224.021 355.567 223.794 355.021 225.213 353.087C227.106 352.307 228.578 352.716 230.648 352.953L264.887 353.063C270.53 353.085 278.812 352.687 284.102 353.58L285.237 353.526C286.403 355.42 285.627 359.626 285.381 362.085L246.369 362.124C240.132 362.127 230.996 362.398 224.96 361.891C223.949 360.727 224.068 360.102 224.026 358.265Z" fill="#48CB9D"/>
<path d="M284.101 353.582L285.236 353.528C286.402 355.422 285.626 359.627 285.38 362.087L246.369 362.126C240.132 362.129 230.995 362.4 224.959 361.892C223.949 360.728 224.067 360.104 224.025 358.267L227.553 358.454C241.75 358.27 256.007 358.638 270.209 358.543C273.755 358.52 278.011 358.775 281.437 357.989C281.281 354.418 281.041 354.655 284.101 353.582Z" fill="#248171"/>
<path d="M224.026 358.265C224.021 355.567 223.794 355.021 225.213 353.087C227.106 352.307 228.578 352.716 230.648 352.953C227.66 354.874 227.351 354.632 227.554 358.452L224.026 358.265Z" fill="#2A9C84"/>
<path d="M411.483 344.222C414.021 344.181 416.772 344.113 419.298 344.201C422.267 344.304 419.644 345.786 421.462 347.76C422.862 347.719 423.749 347.504 424.837 348.32L424.708 351.206C425.172 351.624 426.123 352.417 426.751 352.623C429.963 353.684 428.481 360.518 427.627 362.403C422.866 362.957 422.022 363.102 421.534 367.791C416.579 368.918 413.802 369.152 410.844 365.185C409.592 364.888 409.176 364.812 408.003 364.312C407.891 363.268 407.791 362.513 407.602 361.481C400.83 357.444 403.981 352.243 409.176 349.212C411.367 347.933 411.281 346.444 411.483 344.222Z" fill="#848484"/>
<path d="M415.712 352.326C417.32 352.195 418.204 351.975 419.708 352.571C421.727 355.12 421.768 357.02 420.264 359.855L418.461 360.268C416.609 360.386 414.579 360.301 412.705 360.268C412.625 356.073 411.424 353.41 415.712 352.326Z" fill="#48CB9D"/>
<path d="M138.032 435.496C142.559 434.949 139.832 434.515 141.582 431.832C145.403 429.907 147.375 432.897 150.06 429.35C154.606 427.581 166.768 429.059 173.034 428.484C174.064 427.515 173.698 427.265 173.784 425.317C175.903 423.958 193.577 423.805 196.089 425.529C200.331 428.439 197.446 429.852 204.462 429.44L204.62 430.079C204.746 430.986 204.727 432.464 205.347 433.016C208.305 435.642 221.793 431.727 222.512 434.936C222.572 435.201 222.658 437.224 222.672 437.786C223.773 438.755 280.938 438.795 287.201 438.354L287.966 438.296C289.75 435.586 287.158 434.555 289.843 433.781C294.125 432.548 304.185 435.16 307.533 433.082L307.716 430.147C311.041 428.634 315.333 429.817 315.893 427.973C316.379 426.372 315.484 426.041 317.056 424.894C321.647 424.22 332.646 424.427 337.389 424.787C339.015 427.202 336.817 427.186 338.781 428.863C343.072 428.933 352.394 428.483 355.982 428.927C356.57 429.872 356.628 429.966 357.007 431.01C358.385 431.723 362.434 431.741 364.034 431.561C371.885 430.679 369.127 432.868 373.271 436.875L373.858 439.881C371.423 439.875 367.976 439.542 365.972 440.575L365.475 442.18L364.854 443.231C362.119 443.616 359.959 443.633 357.215 443.709C356.784 446.447 357.22 446.816 355.676 448.425L353.398 448.687C346.943 448.11 334.751 449.107 329.766 448.35C329.661 451.01 330.131 451.1 328.79 452.658C325.269 454.026 321.829 453.126 317.772 453.136C273.029 452.397 227.426 453.668 182.524 453.048C181.325 451.944 181.738 451.829 181.611 449.596C179.61 447.861 158.849 448.696 154.636 448.745L154.303 445.444C153.152 443.928 153.871 444.409 152.137 443.863C146.677 445.106 144.914 445.921 144.212 439.981C142.539 439.275 140.78 439.482 138.883 439.493C137.72 437.99 138.126 437.868 138.032 435.496Z" fill="#C2C1C1"/>
<path d="M138.032 435.494C143.468 435.761 144.444 436.638 149.485 438.711C150.767 439.238 152.67 437.752 154.25 439.139C154.4 439.979 154.625 442.382 155.133 442.581C160.61 444.734 176.558 441.227 181.423 443.512C181.536 444.03 181.77 446.073 182.338 446.148C209.963 449.844 237.847 447.829 265.658 448.322C287.1 448.702 308.236 447.5 329.588 447.417C331.939 444.907 327.198 443.742 334.717 443.621C341.137 443.519 347.66 443.829 354.045 443.515L353.398 448.686C346.943 448.108 334.751 449.106 329.766 448.348C329.661 451.009 330.131 451.098 328.79 452.657C325.269 454.024 321.829 453.124 317.772 453.135C273.029 452.396 227.426 453.666 182.524 453.046C181.325 451.942 181.738 451.828 181.611 449.594C179.61 447.86 158.849 448.694 154.636 448.744L154.303 445.442C153.152 443.927 153.871 444.408 152.137 443.861C146.677 445.104 144.914 445.92 144.212 439.98C142.539 439.274 140.78 439.481 138.883 439.492C137.72 437.989 138.126 437.866 138.032 435.494Z" fill="#E1E0E0"/>
<path d="M317.773 453.135C322.182 452.305 321.356 449.159 326.146 449.234C327.751 449.259 328.353 448.975 329.767 448.349C329.662 451.009 330.132 451.099 328.791 452.658C325.27 454.025 321.83 453.125 317.773 453.135Z" fill="#C2C1C1"/>
<path d="M357.306 442.675C357.39 441.933 357.365 440.205 357.921 439.827C360.403 438.142 362.713 438.861 365.129 439.94C365.369 441.023 365.408 441.074 365.477 442.179L364.856 443.231C362.12 443.616 359.961 443.633 357.217 443.709C356.785 446.446 357.221 446.816 355.677 448.425L353.399 448.687L354.047 443.516C354.552 443.313 356.656 442.837 357.306 442.675Z" fill="#E1E0E0"/>
<path d="M354.047 443.516C354.552 443.313 356.656 442.837 357.306 442.675C360.386 443.227 362.111 442.853 364.856 443.23C362.12 443.616 359.961 443.633 357.217 443.708C356.785 446.446 357.221 446.815 355.677 448.425L353.399 448.687L354.047 443.516Z" fill="#C2C1C1"/>
<path d="M212.295 394.826L213.985 394.45L215.16 392.325C218.916 391.574 220.679 391.268 222.615 394.941C227.072 395.887 232.806 394.714 236.139 395.532L236.754 398.501C239.309 399.779 258.341 399.173 262.162 398.946C265.58 395.666 280.273 399.903 284.552 397.324C284.994 395.163 284.951 394.613 284.925 392.369L299.572 392.241C299.542 395.191 299.286 401.127 299.901 403.72C301.068 404.342 301.93 404.084 303.271 403.945C307.115 408.272 301.805 418.893 308.776 417.684C309.664 418.79 309.543 418.795 309.686 420.239C309.008 421.823 308.472 422.085 307.147 423.16L306.903 426.344C304.58 427.309 298.086 426.379 295.052 427.151C294.984 428.17 294.926 428.732 294.54 429.679C290.426 430.328 282.636 429.987 278.081 430.071C260.01 429.702 241.581 430.369 223.192 430.01L213.454 429.915L212.731 430.095C209.304 430.397 207.549 429.973 204.62 430.078L204.463 429.438C206.147 428.696 205.881 427.451 206.118 425.824C203.862 425.795 203.804 426.157 202.181 425.156C201.052 422.738 201.639 419.338 201.743 416.381L206.965 415.655C206.92 411.811 206.843 408.81 207.245 404.982C208.425 403.681 209.168 403.792 210.914 403.552C211.624 401.941 211.083 399.577 210.864 397.727L211.129 395.638L212.295 394.826Z" fill="#C2C1C1"/>
<path d="M284.925 392.37L299.573 392.242C299.542 395.192 299.287 401.128 299.901 403.721C301.068 404.343 301.93 404.085 303.271 403.946C307.115 408.273 301.805 418.894 308.777 417.685C309.664 418.791 309.543 418.796 309.686 420.24C309.008 421.824 308.473 422.085 307.148 423.161L306.903 426.345C304.581 427.31 298.087 426.38 295.052 427.152C294.984 428.171 294.926 428.733 294.541 429.68C290.427 430.328 282.636 429.987 278.081 430.072C278.069 426.437 278.368 424.328 276.691 420.898C274.044 415.488 277.171 415.443 270.575 415.149C269.291 413.047 270.782 408.974 269.3 406.64C267.633 406.353 266.758 406.373 265.45 405.304C265.036 401.588 263.609 403.271 259.995 401.842C261.267 400.754 261.638 400.609 262.162 398.947C265.581 395.667 280.273 399.904 284.553 397.325C284.995 395.164 284.952 394.613 284.925 392.37Z" fill="#A6A5A5"/>
<path d="M290.387 413.904C291.689 414.33 291.268 414.098 292.283 414.971C292.879 417.413 292.25 419.298 291.765 421.807C288.813 420.131 288.913 416.57 290.387 413.904Z" fill="#999897"/>
<path d="M286.935 403.406L287.849 404.296C288.25 407.307 287.945 410.185 287.774 413.228C286.091 411.156 286.797 406.275 286.935 403.406Z" fill="#999897"/>
<path d="M210.864 397.729L214.498 398.16C217.308 398.114 218.52 397.845 220.693 399.295C221.402 400.894 221.293 401.457 221.312 403.18C221.403 406.246 221.832 413.286 221.25 415.961C218.723 417.538 218.666 415.425 216.942 417.225C216.819 421.325 217.829 422.522 213.928 423.766C212.78 425.792 213.261 427.336 213.454 429.917L212.731 430.097C209.304 430.399 207.549 429.975 204.62 430.08L204.463 429.44C206.147 428.698 205.881 427.453 206.118 425.826C203.862 425.796 203.804 426.158 202.181 425.157C201.052 422.74 201.639 419.339 201.743 416.383L206.965 415.657C206.92 411.813 206.843 408.811 207.245 404.983C208.425 403.682 209.168 403.794 210.914 403.554C211.624 401.943 211.083 399.579 210.864 397.729Z" fill="#E1E0E0"/>
<path d="M217.373 402.101L221.312 403.178C221.404 406.244 221.832 413.284 221.25 415.959C218.723 417.536 218.666 415.423 216.943 417.223C216.819 421.323 217.83 422.52 213.928 423.764C212.781 425.79 213.262 427.334 213.455 429.915L212.732 430.095L212.707 425.793C212.864 423.123 213.221 422.938 211.133 421.647L212.264 421.096C213.269 418.867 212.52 418.113 212.681 415.863C213.075 410.366 214.091 413.609 216.875 410.877C217.831 408.183 217.457 405.043 217.373 402.101Z" fill="#C2C1C1"/>
<path d="M206.117 425.824L208.586 426.08C210.646 426.53 210.724 426.357 212.706 425.794L212.73 430.095C209.303 430.397 207.549 429.973 204.62 430.079L204.462 429.439C206.146 428.697 205.881 427.452 206.117 425.824Z" fill="#999897"/>
<path d="M208.586 426.079C208.669 424.37 208.539 423.218 209.427 421.776L211.132 421.647C213.22 422.938 212.863 423.123 212.706 425.793C210.725 426.356 210.647 426.529 208.586 426.079Z" fill="#A6A5A5"/>
<path d="M221.312 403.179L232.639 403.135C232.685 406.95 233.34 411.939 231.013 414.834C230.163 415.086 229.452 415.287 228.587 415.506C227.441 419.88 229.396 423.705 227.224 425.602C226.149 425.57 225.289 425.515 224.218 425.415C222.98 426.921 223.252 427.877 223.192 430.01L213.454 429.915C213.262 427.335 212.781 425.791 213.928 423.764C217.829 422.52 216.819 421.324 216.942 417.223C218.666 415.424 218.723 417.537 221.25 415.959C221.832 413.285 221.404 406.245 221.312 403.179Z" fill="#E1E0E0"/>
<path d="M212.296 394.826L213.986 394.45L215.161 392.325C218.917 391.574 220.68 391.268 222.616 394.941C227.073 395.887 232.807 394.714 236.14 395.532C232.146 396.299 216.321 395.971 212.296 394.826Z" fill="#A6A5A5"/>
<path d="M136.962 443.965C139.546 443.899 140.455 443.625 142.299 444.924C142.74 446.146 142.775 446.263 142.73 447.52L142.685 448.489C145.192 449.776 152.193 448.185 154.251 449.469C154.198 450.659 154.186 451.71 154.19 452.902C156.17 454.353 172.034 453.05 176.969 453.594C179.098 455.245 176.867 455.38 178.643 457.867C187.685 458.746 208.011 458.081 217.799 458.118C244.496 458.337 271.195 458.392 297.893 458.285C302.815 458.3 331.123 459 334.538 457.872C334.718 456.251 334.617 455.657 335.727 454.476C341.408 451.558 355.009 455.507 358.214 452.499C358.433 445.526 364.28 451.065 368.249 449.013C368.607 448.828 369.759 445.434 371.849 444.036C373.43 444.166 372.748 443.883 373.957 444.933C374.635 447.191 374.436 452.783 374.439 455.392L374.389 456.348C372.118 459.291 366.565 455.533 362.663 458.379C361.842 465.058 355.898 459.016 351.393 461.734C351.372 461.97 351.116 464.719 350.942 464.78C345.499 466.678 315.27 463.609 312.6 465.565C312.529 467.371 312.749 467.319 311.89 468.768C311.045 468.837 310.199 468.897 309.353 468.948C302.774 469.333 200.062 469.101 199.597 468.86C199.311 468.711 199.114 468.431 198.873 468.217L198.739 465.837C196.297 463.737 166.054 466.718 159.365 464.896C159.129 464.041 159.058 463.218 159.016 462.333C156.611 461.011 153.355 462.862 150.645 461.123C150.595 460.363 150.538 459.603 150.475 458.843C148.119 456.756 141.1 457.32 137.729 457.351C137.038 452.39 137.022 448.931 136.962 443.965Z" fill="url(#paint0_linear_3501_717)"/>
<defs>
<linearGradient id="paint0_linear_3501_717" x1="259.576" y1="477.042" x2="252.411" y2="427.964" gradientUnits="userSpaceOnUse">
<stop stop-color="#9C9C9C"/>
<stop offset="1" stop-color="#C5C3C3"/>
</linearGradient>
</defs>
</svg>
