<svg width="512" height="512" viewBox="0 0 512 512" fill="none" xmlns="http://www.w3.org/2000/svg">
<path d="M437.141 -3.19629C441.069 -3.05382 442.588 -1.75438 445.139 1.09312L445.565 1.57405C448.494 2.70198 474.93 2.18022 480.048 2.14936L480.059 7.73003L511.907 7.74545C512.234 21.6127 511.574 35.6062 511.786 49.4898C511.832 52.5278 511.779 55.5732 511.516 58.6012C510.04 60.7691 511.137 58.2464 508.836 59.7246C508.762 60.9215 508.863 61.1656 508.336 62.2101C504.951 63.1919 479.472 62.5404 474.024 62.5213L474.003 55.7846L444.961 55.8209C445.184 65.1656 445.202 74.5139 445.015 83.8585C447.421 83.8449 449.566 83.7887 451.971 84.0554C452.932 84.9438 452.588 85.295 452.668 87.108C454.11 87.9891 456.377 87.5155 458.367 87.4211C460.12 88.7223 458.158 90.8684 459.7 90.8475C465.289 90.7713 461.698 92.6969 463.738 94.7921C465.24 94.8084 465.64 94.7495 467.114 95.2104C467.823 96.5725 467.453 140.144 467.317 144.808C465.696 146.452 464.963 144.593 463.145 146.142C463.184 147.668 463.338 147.673 462.832 149.07C461.265 149.425 460.896 149.466 459.416 150.217C459.432 151.216 459.42 151.182 459.13 152.144C457.798 153.23 457.515 153.335 455.866 153.858C455.16 154.938 455.397 157.21 455.374 158.754C453.409 158.764 449.925 158.483 448.639 159.62L448.644 161.86C448.477 162.12 448.394 162.463 448.141 162.64C446.386 163.874 318.8 161.354 315.779 163.384L315.657 165.368C314.377 166.687 313.483 165.728 310.898 166.708C310.768 167.443 310.657 168.181 310.564 168.921C307.564 169.616 301.35 168.479 297.881 169.42C297.335 170.721 297.495 172.965 297.492 174.46C299.617 174.46 301.92 174.072 303.647 175.028C304.034 175.917 304.075 176.305 304.14 177.273C305.801 178.734 313.925 177.924 316.554 177.809L316.588 184.478L338.34 184.412L338.564 189.5L359.594 189.673L359.681 195.169C364.041 195.167 368.399 195.189 372.757 195.233C372.754 195.621 372.834 198.319 372.809 198.501C372.389 201.527 382.649 198.917 384.629 200.024C386.347 200.984 384.487 202.318 386.185 203.767C387.522 203.653 387.615 203.54 388.862 203.941C389.27 204.97 389.283 205.599 389.351 206.703C390.657 207.465 393.558 206.938 395.8 207.125C397.29 208.618 395.557 208.645 396.925 210.788C398.131 210.795 398.549 210.697 399.665 211.143C399.802 212.041 399.923 212.94 400.029 213.842C401.283 214.697 402.84 213.884 405.142 214.359C405.641 215.103 405.622 215.248 405.681 216.127L405.729 216.948C407.311 218.143 409.32 216.862 411.36 218.1C411.469 219.267 411.364 219.921 412.103 220.778L414.436 220.819C416.219 221.859 414.8 223.759 415.313 224.182C416.13 224.856 421.692 227.815 421.825 228.741C422.096 230.614 421.086 231.754 422.825 233.645C425.266 234.008 424.917 234.801 425.845 237.035C426.991 237.119 427.439 237.165 428.559 237.4C429.819 240.909 427.204 247.588 429.29 249.886C430.746 249.855 431.344 249.752 432.752 250.209C434.065 254.075 433.271 285.29 433.27 291.671L428.325 291.786L428.337 304.023L421.431 304.411C421.423 306.61 421.495 308.277 421.11 310.457C420.142 310.759 419.982 310.764 418.999 310.785L418.134 310.799C416.77 312.735 418.63 311.132 417.954 313.772C416.473 313.931 416.112 313.903 414.692 314.413C414.585 315.181 414.461 315.947 414.319 316.71C413.42 316.966 413.14 317.006 412.232 317.086L411.385 317.157L410.907 317.746C411.591 320.984 409.806 319.709 407.336 321.831L407.681 322.934C406.75 324.387 402.239 326.209 400.604 327.6C399.685 328.381 399.61 330.75 399.452 332.048C397.345 331.965 395.657 331.692 393.724 332.441C392.531 333.737 392.909 332.95 392.93 335.045C391.186 337.481 384.515 335.216 382.017 336.632L381.729 338.982C380.487 339.944 374.393 339.6 372.493 339.591L372.742 345.155C368.169 345.244 358.025 344.678 354.207 345.642C352.619 346.994 353.201 347.689 351.961 350.204C350.945 351.086 350.114 351.641 348.678 351.635C338.476 351.592 328.138 351.704 317.945 351.765L246.273 351.905L162.091 351.892C143.895 351.901 125.069 352.166 106.92 351.626L106.471 357.065L96.4153 357.033C96.4234 359.153 96.1866 364.253 96.9334 365.902C100.189 366.791 100.302 366.379 100.52 369.622C101.718 371.321 102.619 369.396 104.792 371.069C104.785 372.459 104.655 371.991 105.127 373.229C107.231 373.844 109.832 372.936 112.852 373.372C114.256 374.979 112.489 374.994 113.775 377.338C117.388 378.086 125.999 376.277 127.708 378.169C127.721 379.571 127.665 379.826 128.022 381.21C129.482 381.799 130.4 381.602 131.542 380.68C131.716 379.505 131.644 378.989 132.404 378.11C134.751 377.578 139.526 377.824 142.146 377.865L142.386 372.777L173.291 372.871L173.578 378.031C175.991 377.984 180.437 377.848 183.064 378.036C184.486 378.139 183.309 381.316 184.696 381.522C186.434 381.782 186.653 381.1 187.916 382.167C187.999 383.799 187.791 383.831 188.595 385.098C193.194 385.262 191.503 388.133 195.043 391.699C195.906 392.568 195.494 390.981 197.438 392.478C198.166 394.81 197.258 397.847 197.569 401.068C198.842 403.038 199.167 400.949 201.203 402.475C202.038 407.871 201.529 426.881 201.482 433.18L195.974 433.27C195.964 436.187 195.958 439.356 195.875 442.313C195.822 444.16 193.339 442.608 192.27 444.006C191.114 445.519 189.241 448.233 188.163 449.733C187.888 450.116 186.128 449.229 184.335 450.562C184.19 451.901 184.276 451.691 183.86 452.943C181.592 453.727 176.178 453.322 173.559 453.252L173.444 459.429C192.709 459.538 213.192 458.868 232.27 459.419C232.762 466.463 232.492 476.097 232.493 483.307C232.495 493.771 232.692 504.885 232.336 515.303L193.831 515.301C176.694 515.283 158.32 515.622 141.281 515.13L141.484 462.285L117.95 462.233L117.877 456.592C110.643 456.233 102.348 456.335 95.0315 456.263L94.9906 449.394C87.851 449.297 80.5117 449.391 73.3558 449.395L73.2641 444.005C70.7859 444.05 67.5383 444.365 65.1944 443.61C64.1844 443.285 64.0329 442.307 63.6808 441.329C61.9875 440.304 60.1391 440.93 57.5693 440.347C56.2662 439.067 56.7435 439.844 56.4305 437.751C55.0276 436.432 51.5676 436.418 49.4732 436.202C49.3262 434.789 48.9106 432.15 48.2428 430.951C45.9143 430.011 46.4088 430.986 43.9279 430.945C39.3418 430.87 42.4915 429.268 40.5224 427.324L37.9489 427.356C36.1368 426.021 38.183 425.964 36.6468 424.2C35.4617 424.181 34.6631 424.304 33.665 423.694C33.429 422.763 33.3791 421.917 33.3465 420.96C30.7775 419.074 26.2313 422.726 26.5308 418.068C26.5299 418.077 22.6107 415.71 22.5944 415.539C22.461 414.156 22.9428 414.01 22.1543 412.801L20.0418 412.977C18.3875 411.993 20.2487 411.139 18.7169 409.209C17.5046 409.129 16.7551 409.222 15.8032 408.49C15.697 407.262 15.6943 406.527 15.6997 405.311C14.0972 403.893 13.9466 405.431 12.2071 404.213C12.2842 401.911 12.4158 399.612 12.6009 397.317L7.08374 397.384C7.08283 394.573 7.76159 387.222 6.52658 385.29C4.79249 385.237 5.33332 385.504 4.01755 384.712L3.95947 382.314C2.91048 381.42 2.57746 381.737 0.818866 381.663C0.209983 381.098 0.0221538 380.978 0.0983775 380.018C0.556628 374.214 -0.799072 338.278 0.827035 336.324C2.15278 336.265 2.38417 336.267 3.66183 335.961C4.61553 334.141 3.12191 331.713 4.1963 329.856C5.20627 329.756 5.81969 329.67 6.81514 329.477C7.77429 327.249 6.20444 324.921 7.71077 323.192C13.09 323.302 9.80601 321.2 10.8967 319.803C12.4902 317.762 17.0083 317.845 16.344 313.728C16.3776 313.937 20.344 310.659 20.7142 310.287C20.6752 309.113 20.5908 308.809 20.8703 307.685C21.5472 307.567 21.8721 307.525 22.5744 307.474L23.1851 307.434C23.8639 305.337 27.97 302.818 30.0407 301.236C30.3075 299.951 30.3683 300.026 29.871 298.829C29.0471 298.451 28.2195 298.144 27.3565 297.867C26.2395 295.964 26.3901 289.387 26.3257 286.766L21.2359 286.623C21.2359 281.546 20.9129 261.513 21.4973 257.746C22.6615 257.005 24.6279 257.126 26.1079 257.071C26.1315 254.223 25.891 251.162 26.1923 248.334C26.4936 245.513 27.5298 247.742 29.6559 246.166C29.6487 244.909 29.4727 244.095 30.2213 243.13C31.4826 242.933 31.9454 242.853 33.1604 242.487C33.2276 240.984 33.067 240.88 33.6849 239.576C34.8582 239.584 35.0924 239.698 36.1477 239.254L36.5034 236.968C38.0007 235.087 37.0624 237.131 39.6894 235.833C39.8073 234.771 39.9071 234.051 40.1113 233.004C41.7864 232.313 46.6058 232.568 48.7137 232.588L48.9687 227.647L80.2186 227.664L80.2831 233.073C83.7304 233.106 87.3918 232.985 90.8564 232.93C91.2184 234.775 91.0233 235.439 92.3863 236.674C95.4407 239.441 98.0867 243.125 100.579 246.443C100.665 247.359 100.852 248.27 101.011 249.18C101.742 249.905 102.179 250.2 103.081 250.698C104.129 252.857 103.536 253.97 104.12 256.53C105.351 257.538 105.296 257.179 107.361 257.194C108.89 258.944 108.283 271.061 108.268 274.343C128.256 274.404 321.892 275.23 324.911 273.876C324.975 272.727 325.02 272.204 325.221 271.075C326.64 270.498 329.919 270.452 331.629 270.333L331.556 263.919C328.055 263.986 323.676 265.071 323.377 260.892C321.128 259.254 307.414 259.907 303.859 259.931L303.778 254.294L282.991 254.378L282.935 247.303C277.968 247.094 267.821 247.887 263.886 246.674C263.654 245.869 263.753 244.809 263.275 244.461C261.253 242.987 257.207 243.363 254.822 243.372L254.892 237.181C252.455 237.126 246.652 237.822 245.074 236.704C244.942 231.254 243.55 235.102 239.731 233.218L239.528 231.315C237.715 230.096 236.887 231.609 234.767 230.631L234.578 228.983C233.786 227.629 227.876 224.673 226.089 223.709L226.348 221.973C224.518 220.303 223.483 221.668 222.528 220.222C221.635 218.872 223.554 219.868 221.959 217.771C220.716 217.627 219.985 217.648 218.894 217.02C218.963 215.892 219.045 215.826 218.712 214.769C217.445 214.463 217.141 214.467 215.999 213.806C215.699 209.402 213.784 211.858 212.606 210.623C209.845 207.733 211.206 204.755 206.315 204.425C204.692 202.511 206.086 196.466 205.805 192.726C204.541 190.917 204.392 192.891 202.204 191.259C202.135 190.644 202.077 190.027 202.031 189.41C201.38 180.707 202.092 160.668 201.825 150.926C201.998 150.722 202.171 150.519 202.345 150.315L205.022 150.2C206.339 148.877 204.791 148.392 206.113 146.131C212.022 145.814 207.333 142.512 209.27 139.309L211.799 139.14C212.604 138.237 212.29 138.11 212.249 136.467C213.615 134.78 213.597 136.633 215.669 135.173C215.661 133.769 215.584 133.475 215.967 132.104C216.637 132.142 217.307 132.186 217.977 132.237C218.672 130.537 219.147 129.201 220.124 127.637C220.87 127.743 221.132 127.768 221.916 127.815C222.42 126.344 222.31 124.496 222.36 122.866C233.154 123.051 226.708 119.82 229.709 115.98C231.272 115.205 234.259 115.598 236.451 115.473C242.74 107.707 243.876 111.962 248.082 109.658C248.506 104.36 251.558 108.4 254.803 106.6C254.873 105.501 254.945 104.707 255.098 103.617C256.637 102.934 261.883 103.258 263.904 103.279L263.966 97.9037C270.156 97.9645 276.347 97.9726 282.536 97.9264L282.597 90.96C288.221 90.8121 294.1 90.8648 299.747 90.8421L299.871 79.0882C300.413 79.0755 303.171 79.0011 303.444 78.9321C305.999 78.2897 303.152 71.5284 304.591 69.2735C305.818 69.229 306.016 69.386 306.936 68.66C307.009 63.524 307.894 67.3742 310.201 65.0657C310.118 60.2909 310.901 63.7282 313.088 61.7582C313.167 60.2246 312.942 60.721 313.633 59.5077L315.881 59.3154C316.834 58.0432 317.777 56.2147 318.569 54.7964C320.158 54.2229 324.886 54.104 326.853 53.9942C326.876 52.2665 326.635 50.997 327.69 49.7293C329.009 49.0542 355.927 49.1486 358.651 49.5978C359.439 50.8754 359.11 51.2411 359.063 53.0496C360.514 55.8572 366.009 52.497 369.068 54.8191C369.139 56.3245 369.013 57.4025 369.817 58.6448C370.615 58.6221 371.371 58.5794 372.168 58.5295C373.061 59.6611 372.515 59.1911 372.846 60.1756C373.526 62.1965 380.708 65.945 381.738 68.2681C382.658 70.3442 380.949 76.728 382.339 78.6345C383.414 78.7479 384.492 78.845 385.57 78.9258C386.777 80.5482 385.341 81.6725 386.617 83.6217C389.765 84.1652 398.668 83.8957 402.414 83.8839L432.656 83.7823C432.529 66.0176 432.507 48.253 432.589 30.4883C432.58 20.5474 432.303 10.4015 432.505 0.490586C434.278 -1.33334 434.812 -2.1101 437.141 -3.19629Z" fill="black"/>
<path d="M444.973 94.7417C447.026 94.6447 449.447 94.2935 451.26 95.033C451.884 96.0838 451.754 96.3198 451.817 97.5829C453.793 99.6573 455.489 97.8597 455.263 99.8896C454.868 103.443 456.49 102.913 457.884 105.066C458.438 115.162 457.616 125.451 457.813 135.575C457.867 138.355 457.595 139.374 455.544 141.435C452.539 144.21 449.379 149.096 445.259 149.967C444.98 151.034 444.997 151.183 444.956 152.298C443.074 153.286 393.579 152.583 387.625 152.551L323.866 152.744C319.496 152.733 314.747 152.547 310.426 153.121C309.928 153.187 310.086 156.033 310.1 156.433C307.038 160.319 299.701 157.716 297.602 159.424L297.35 161.854C295.303 163.279 292.888 161.567 290.317 162.614C290.239 163.512 290.177 164.412 290.132 165.313C287.756 166.63 284.721 165.203 284.352 167.124C283.704 170.509 283.769 174.708 283.879 178.089C286.279 177.895 287.109 177.446 289.105 178.356C289.685 179.377 289.673 179.326 289.901 180.474L290.142 180.733C291.678 180.873 294.751 180.888 295.749 181.788C296.212 184.486 296.986 185.043 299.631 184.897C300.3 185.852 300.043 186.557 299.981 187.748L299.943 188.61C302.753 188.57 311.387 188.192 313.534 189.04C313.765 190.118 313.826 190.668 313.931 191.77C316.922 193.441 329.9 190.986 330.802 193.201C330.963 193.595 330.922 194.7 330.939 195.07C333.419 196.506 336.169 194.834 338.183 196.157C338.319 197.391 338.35 198.009 338.35 199.251C340.552 201.664 355.885 198.585 358.194 200.907C358.183 202.122 358.146 202.856 358.336 204.077C361.039 206.136 370.216 202.675 369.874 206.2C369.868 206.264 370.04 207.782 370.059 207.993C370.552 208.301 372.369 209.433 372.721 209.8C375.059 212.237 379.987 210.136 382.524 211.722L382.761 214.105C384.987 215.465 386.906 214.173 389.043 215.458C389.033 216.301 389.066 217.103 389.205 217.936C391.689 218.872 392.086 217.411 393.3 218.827C393.372 220.366 393.006 220.619 394.412 221.511C395.75 221.094 396.205 220.81 397.554 221.19C398.05 222.623 397.889 222.112 397.772 223.76C399.672 225.52 402.338 223.996 404.554 225.22L404.563 225.944C404.582 226.794 404.62 227.276 404.71 228.107C407.615 229.339 407.56 226.854 408.629 230.401C409.984 231.375 410.406 231.092 412.357 231.295L412.327 236.988C414.454 236.942 414.143 236.618 415.624 237.571C416.018 239.128 415.061 242.11 415.86 242.876C418.054 244.981 418.594 241.939 418.681 246.785C420.354 248.655 420.496 247.241 420.965 248.017C422.049 249.807 420.582 252.671 421.54 254.599L423.29 254.647C424.04 256.695 423.159 284.289 422.569 287.74C420.931 289.523 419.267 287.532 418.421 289.267C417.746 290.65 418.829 295.474 417.882 296.903C417.884 296.9 415.681 297.18 415.679 297.183C414.813 298.501 415.958 301.058 414.777 301.603C414.758 301.612 412.248 302.107 412.244 302.111C411.06 303.73 412.697 304.672 411.389 305.686C409.256 305.559 410.013 305.193 408.763 306.222C408.847 307.268 408.892 307.585 409.13 308.606C407.528 309.483 406.383 310.075 404.709 310.797C404.465 312.004 404.513 312.047 404.611 313.293L404.204 313.827C403.26 313.678 402.341 313.558 401.386 313.546C399.865 315.616 400.876 317.073 399.255 317.743L397.737 317.453C396.488 318.954 398.319 319.684 396.454 319.841C394.575 320 394.747 319.229 393.048 320.095L392.804 322.992C390.761 324.18 387.872 322.117 385.606 323.417C385.474 324.338 385.362 325.261 385.272 326.186C383.349 327.263 380.924 326.029 378.538 327.106C377.576 330.922 374.154 329.981 370.68 329.939C370.448 331.824 370.194 333.415 370.23 335.321C366.609 335.363 354.242 335.057 351.947 336.147L351.685 336.732C351.14 337.925 349.875 340.671 348.605 340.775C336.557 341.762 318.786 341.657 307.229 341.654L168.274 341.692L127.449 341.685C121.694 341.688 109.455 341.432 104.105 342.209C103.448 343.531 103.652 343.668 103.673 345.258C102.17 346.396 98.2755 345.935 96.2764 345.889C92.8962 345.811 91.83 349.726 89.8155 351.78C89.1631 352.444 87.7121 350.041 87.7384 354.038C85.1768 355.375 86.1178 353.081 84.7394 355.104C84.4544 358.214 83.939 365.268 85.8582 367.661L86.341 367.68C87.0887 367.715 86.8029 367.695 87.6223 367.812C88.4861 370.687 87.0941 371.253 88.4081 373.095L88.8119 373.103C89.9181 373.135 90.3709 373.053 91.3373 373.603C91.526 375.583 91.4707 376.465 91.3627 378.474C93.7465 378.398 95.9098 378.057 97.9914 379.054C99.8017 381.427 97.9933 381.673 100.105 382.045C102.581 382.482 106.733 381.885 108.918 382.813C109.929 384.428 110.485 385.37 110.678 387.327C113.75 388.104 119.392 386.955 123.393 387.717C123.903 388.881 123.793 388.252 123.344 389.695C121.827 391.338 121.522 391.489 119.521 392.516C118.759 395.889 119.301 398.876 118.803 402.331C117.212 402.327 116.526 402.095 115.245 402.767C114.883 406.918 114.811 428.06 115.449 431.585C117.111 432.89 118.405 430.585 119.291 434.484C119.422 435.063 119.359 438.035 119.355 438.757C119.615 440.032 119.291 439.515 120.126 440.437L121.965 440.351C123.87 441.843 121.838 442.007 123.315 443.574C123.655 443.936 124.573 443.004 125.96 444.347C125.868 445.525 125.777 445.549 126.178 446.633C127.494 446.695 127.064 446.596 128.309 447.033C127.74 451.289 129.167 448.387 131.672 451.504C130.44 452.353 127.212 452.611 125.796 452.231C125.993 451.582 126.187 450.934 126.378 450.283C124.366 448.987 123.301 450.466 120.551 448.82C120.486 448.71 119.618 447.23 119.522 447.19C116.221 445.795 101.473 446.36 98.1039 446.35L97.8018 440.536C93.938 440.235 80.3801 440.29 77.8339 439.686C77.4827 438.316 77.48 437.759 77.3974 436.382L76.803 435.946L74.97 436.323C73.2759 435.349 75.3221 434.847 73.481 433.018C71.5917 433.183 67.8604 433.827 66.4638 432.709C65.8559 432.223 65.9638 431.042 65.8522 430.034C59.9612 430.262 64.8586 429.517 60.2679 427.22C58.8224 427.092 56.532 427.049 55.3179 426.426C55.3252 425.129 55.3932 425.164 54.8978 423.988C53.9504 423.744 53.6256 423.685 52.6746 423.616L51.8579 423.56C51.4586 422.974 51.2145 422.542 50.936 421.907C50.1982 422.474 50.4278 422.273 49.8225 422.819L49.4451 423.165C47.5658 422.869 45.6683 420.002 44.0504 418.866C43.5295 418.501 42.4933 419.469 41.1911 418.102C41.2319 416.962 41.3971 416.334 40.8726 415.352C39.4035 415.101 38.9135 415.23 37.4679 415.404L37.026 414.875C37.1231 413.377 37.2665 413.792 36.8454 412.467C31.0243 412.365 35.3409 409.59 33.1985 409.635C28.9599 409.723 31.7775 407.975 30.2775 406.348C29.5579 406.419 28.9009 406.529 28.1995 406.689C27.7567 405.228 27.0117 402.251 26.2131 401.038C25.9182 400.589 24.2132 400.881 23.4219 400.923C22.3339 399.473 23.3021 397.109 22.4019 394.494C21.2495 393.952 19.9138 394.238 18.5808 394.341C15.2505 393.157 16.4302 391.878 16.4229 388.797C16.4157 385.445 15.8975 385.574 13.2932 384.248C13.0809 383.671 12.8077 378.661 12.7778 377.845C11.5999 377.697 11.9992 377.858 10.992 377.301C10.3423 365.989 10.9203 351.151 10.7343 339.311C10.8495 338.134 10.7878 338.193 11.5509 337.304C12.7006 337.021 13.3703 336.888 14.452 336.408L15.1317 336.101C15.167 334.483 14.9266 333.897 15.6806 332.696L17.7069 332.865C20.6642 331.068 17.8893 326.779 19.6334 323.946C20.9473 323.799 22.0626 323.872 22.99 323.023C22.8892 318.792 23.4555 320.957 25.7621 319.744C26.4908 319.361 26.4264 316.822 27.9971 315.665L29.1323 316.051L29.7267 315.727C29.7285 314.45 29.5915 314.261 30.1668 313.169L31.8219 313.118L34.8827 308.01C37.4988 306.718 41.2755 307.132 43.1103 309.653C43.9715 310.836 45.045 310.422 46.3208 310.372L48.014 310.026C50.6574 312.434 47.1529 313.744 52.6755 314.083C56.2607 314.11 78.3239 314.71 79.8574 313.652V311.253C81.6632 309.467 86.2266 310.931 88.3419 310.009C88.2039 309.098 88.1949 309.029 88.1667 308.074C90.144 307.431 92.8436 306.582 94.7737 305.762C96.7283 304.931 95.0187 304.574 95.8662 302.348C97.0795 302.269 97.1675 302.364 98.2174 301.81L98.9823 298.436C100.361 297.583 101.844 298.035 103.764 298.158L103.782 295.037C103.67 292.922 103.656 288.811 105.228 287.316C106.079 287.229 106.579 287.146 107.419 286.976C107.672 286.242 107.814 285.529 107.92 284.76C109.392 284.141 138.12 284.458 142.271 284.46L266.386 284.476L304.453 284.534C307.614 284.541 326.554 285.113 327.869 283.628C327.832 282.448 327.697 281.995 328.19 280.938C331.049 280.141 336.757 281.456 338.42 279.63C338.399 278.657 338.436 277.887 338.49 276.955C338.602 275.047 343.212 276.741 344.784 275.54C344.873 274.096 344.74 272.901 345.593 271.811C347.17 271.799 346.733 271.965 348.114 271.448C349.53 267.372 348.873 264.555 345.172 261.989C343.967 261.155 345.048 260.96 344.478 260.491C342.719 259.042 340.356 260.812 338.414 259.335C338.459 258.702 338.645 257.038 338.284 256.864C336.732 256.113 329.637 254.165 328.272 253.745C327.193 252.582 326.08 251.199 325.046 249.975L325.126 249.941L306.787 249.863L306.591 244.484C300.478 244.307 289.62 244.38 283.955 243.538C283.12 242.375 283.43 241.695 283.385 239.941C281.368 238.055 276.708 239.804 273.883 239.171C272.108 238.774 271.175 235.149 270.372 234.046C269.624 233.019 265.915 234.17 263.977 233.342L263.911 232.858C263.874 232.606 263.632 231.104 263.604 231.092C261.419 230.117 256.891 231.689 254.884 230.175L254.729 228.167C253.682 227.014 253.915 227.397 251.749 227.29C250.111 227.335 249.479 227.389 247.825 227.112C246.826 225.681 247.184 225.709 247.163 223.565L243.247 224.002C240.647 222.606 243.823 223.682 242.185 221.731C240.907 221.925 240.759 222.084 239.575 221.679C239.48 220.893 239.416 220.506 239.232 219.737C235.669 220.552 237.583 219.562 236.266 217.744L234.643 217.997C232.634 216.313 235.038 217.722 233.766 215.468L232.148 215.395L231.575 214.765L231.773 213.384C230.817 210.978 231.482 213.829 228.908 212.273C228.71 208.717 227.124 210.812 224.934 208.665C224.653 208.389 225.448 207.294 224.478 205.957L222.906 206.227C222.013 205.356 222.218 202.963 222.188 201.514C220.596 200.076 221.118 201.78 218.877 200.537C218.26 198.464 218.88 195.129 218.657 192.359C217.337 190.368 217.257 192.489 215.073 190.909C214.99 186.756 214.744 189.012 212.854 187.625C212.435 184.376 212.237 156.297 212.82 153.322C213.696 153.007 214.436 152.902 215.359 152.796C216.712 150.828 214.82 148.384 216.413 146.298C217.738 146.243 218.18 146.222 219.526 145.98C220.158 144.614 219.653 143.962 219.566 142.349C219.304 139.131 220.654 141.491 222.335 139.661C224.562 137.237 225.32 135.334 228.764 135.185C229.002 134.251 228.928 134.35 228.69 133.426C229.757 132.087 230.144 131.604 231.399 130.462C232.996 130.35 232.517 130.407 234.18 131.482L234.35 130.565L233.241 129.101L233.341 128.393C234.808 128.308 234.263 128.597 235.305 127.894L235.081 126.584C236.985 125.615 239.351 127.184 241.112 125.992C241.195 122.216 242.431 124.308 245.169 121.8L245.052 119.815C246.517 119.133 249.144 119.259 250.986 119.142C253.437 117.492 250.864 118.844 252.649 116.417C254.556 115.579 257.106 115.852 259.286 115.877L259.572 110.843C263.3 111.025 267.563 112.265 268.52 108.06C270.779 105.91 277.481 107.973 280.656 107.512C284.522 106.952 281.694 106.291 283.428 103.949C284.655 103.884 285.205 103.841 286.41 103.628C286.59 102.821 286.704 102.022 286.792 101.201C288.643 100.347 297.366 101.049 299.974 101.173C300.066 103.258 299.701 105.443 300.549 107.239C302.082 108.346 302.227 108.011 304.419 108.257L305.455 108.676L305.797 110.22C305.565 116.798 305.245 117.025 310.936 120.98C310.71 120.824 311.34 122.477 312.487 123.369C313.856 123.361 313.281 123.124 314.334 123.805C314.462 124.644 314.577 125.486 314.677 126.33C316.416 127.863 316.307 126.135 318.699 127.05C318.798 127.895 318.891 128.741 318.976 129.588C320.125 130.232 326.298 130.062 328.071 130.086C328.015 132.022 327.926 132.46 328.397 134.293C330.41 135.248 355.792 135.109 356.934 133.988C356.995 132.462 356.972 132.083 357.32 130.564C359.393 129.26 363.794 131.085 366.191 129.949C366.423 128.961 366.433 128.767 366.419 127.782L366.403 126.919C367.567 126.209 369.878 126.631 371.951 126.413C373.047 124.925 371.949 125.38 372.756 123.194C373.834 123.122 374.141 123.142 375.167 122.847C375.598 121.492 375.575 121.331 376.411 120.135L378.449 120.063C379.129 119.431 379.118 119.233 379.295 118.327L379.46 117.436L380.509 116.858C381.704 113.829 380.644 112.067 381.757 109.53C386.709 108.547 386.047 106.043 385.938 101.829L385.911 94.7018C401.07 94.7354 417.576 94.4332 432.651 94.8443C432.63 96.9196 432.222 100.577 433.531 101.988L445.064 102.071L444.973 94.7417Z" fill="#38CD9B"/>
<path d="M444.973 94.7417C447.026 94.6447 449.446 94.2935 451.26 95.033C451.884 96.0838 451.754 96.3198 451.817 97.5829C453.793 99.6573 455.489 97.8597 455.263 99.8896C454.868 103.443 456.49 102.913 457.884 105.066C458.438 115.162 457.616 125.451 457.813 135.575C457.867 138.355 457.595 139.374 455.543 141.435C452.539 144.21 449.379 149.096 445.259 149.967C444.98 151.034 444.997 151.183 444.956 152.298C443.074 153.286 393.579 152.583 387.625 152.551L323.866 152.744C319.496 152.733 314.747 152.547 310.426 153.121C309.928 153.187 310.086 156.033 310.099 156.433C307.038 160.319 299.701 157.716 297.602 159.424L297.35 161.854C295.303 163.279 292.888 161.567 290.317 162.614C290.239 163.512 290.177 164.412 290.132 165.313C287.756 166.63 284.721 165.203 284.352 167.124C283.704 170.509 283.769 174.708 283.879 178.089C286.279 177.895 287.109 177.446 289.105 178.356C289.685 179.377 289.673 179.326 289.901 180.474L290.142 180.733C291.678 180.873 294.751 180.888 295.749 181.788C296.212 184.486 296.986 185.043 299.631 184.897C300.3 185.852 300.042 186.557 299.981 187.748L299.943 188.61C302.753 188.571 311.387 188.192 313.534 189.04C313.765 190.118 313.826 190.668 313.931 191.77C316.921 193.441 329.899 190.986 330.802 193.201C330.963 193.595 330.922 194.7 330.938 195.07C333.418 196.506 336.169 194.834 338.183 196.157C338.319 197.391 338.349 198.009 338.349 199.251C340.552 201.664 355.885 198.585 358.194 200.907C358.183 202.122 358.146 202.856 358.336 204.077C361.039 206.136 370.216 202.675 369.874 206.2C369.868 206.264 370.04 207.782 370.059 207.993C370.552 208.301 372.369 209.433 372.721 209.8C375.058 212.237 379.987 210.136 382.524 211.722L382.761 214.105C384.987 215.465 386.906 214.173 389.043 215.458C389.033 216.301 389.066 217.103 389.205 217.936C391.689 218.872 392.086 217.411 393.3 218.827C393.372 220.366 393.006 220.619 394.412 221.511C393.437 223.833 394.327 225.393 393.388 227.769L392.628 226.872C390.945 226.74 387.556 224.62 385.846 223.741L385.719 221.676C383.783 220.363 381.203 221.553 379.364 220.358C379.353 219.842 379.342 219.326 379.332 218.81C379.256 215.897 372.735 219.192 369.815 217.208L369.614 214.975C368.051 213.842 366.767 215.349 365.136 214.141C365.148 214.236 364.905 212.35 364.904 212.373C365.009 208.931 358.552 212.354 356.031 210.717L355.774 208.385C352.933 205.875 341.41 209.363 338.928 206.935C338.907 206.425 338.884 205.915 338.862 205.405C339.025 202.38 332.843 205.391 330.348 203.577L330.92 201.619C328.693 200.387 327.212 202.004 324.971 200.969L324.75 199.595C321.562 197.673 313.168 200.423 310.455 198.555C310.45 198.257 310.403 196.918 310.379 196.616C310.141 193.729 302.17 196.624 299.493 194.95C299.243 188.463 293.243 194.011 289.834 191.414L289.84 189.338C288.806 187.606 286.232 188.689 284.302 187.57C283.722 187.234 284.159 186.215 283.636 184.614C282.593 184.484 281.72 184.413 280.67 184.343C279.889 183.264 280.224 180.265 280.229 178.688C279.154 177.05 279.099 178.845 277.232 177.561C276.771 174.228 274.958 165.768 279.753 164.702C280.847 164.458 279.408 161.536 280.728 160.21L282.647 160.733L283.137 160.403L283.218 158.639C284.427 157.291 283.705 157.86 285.736 157.237C286.731 155.985 286.478 155.372 286.726 153.479C289.135 153.397 295.649 154.016 297.045 152.794C297.034 152.438 297.041 151.32 297.033 150.973C296.967 147.748 304.074 151.263 307.269 149.007C307.298 148.307 307.326 146.497 307.702 146.365C310.522 145.376 316.671 146.58 319.883 145.853C320.394 144.044 320.422 144.898 319.95 143.198C318.604 141.684 316.91 141.426 315.087 140.503C312.794 139.343 314.664 138.443 313.697 135.757C312.882 135.601 312.079 135.517 311.251 135.464C309.573 132.818 310.222 126.546 312.564 124.437L312.487 123.369C313.856 123.361 313.281 123.124 314.334 123.805C314.462 124.644 314.577 125.486 314.677 126.33C316.416 127.863 316.307 126.135 318.699 127.05C318.798 127.895 318.891 128.741 318.976 129.588C320.125 130.232 326.298 130.062 328.071 130.086C328.015 132.022 327.926 132.46 328.397 134.293C330.409 135.248 355.792 135.109 356.934 133.988C356.995 132.462 356.972 132.083 357.32 130.564C359.393 129.26 363.794 131.085 366.191 129.949C366.423 128.961 366.432 128.767 366.419 127.782L366.403 126.919C367.567 126.209 369.878 126.631 371.951 126.413C373.047 124.925 371.949 125.38 372.756 123.194C373.834 123.122 374.141 123.142 375.167 122.847C375.597 121.492 375.575 121.331 376.411 120.135L378.449 120.063C379.129 119.431 379.118 119.233 379.295 118.327L379.46 117.436L380.509 116.858C381.704 113.829 380.644 112.067 381.757 109.53C386.709 108.547 386.046 106.043 385.938 101.829L385.911 94.7018C401.07 94.7354 417.576 94.4332 432.651 94.8443C432.63 96.9196 432.222 100.577 433.531 101.988L445.064 102.071L444.973 94.7417Z" fill="#136A57"/>
<path d="M385.91 94.7017C401.069 94.7353 417.575 94.4332 432.65 94.8442C432.629 96.9195 432.221 100.577 433.53 101.988L445.063 102.071C445.36 103.418 445.407 104.286 445.447 105.644C447.346 107.076 447.475 105.114 448.573 106.872C448.835 110.322 448.691 113.985 448.627 117.462L448.559 126.4C448.624 129.409 448.928 136.242 448.406 138.91C447.48 138.861 446.77 138.751 445.852 138.618C445.068 139.514 445.314 140.239 445.208 141.746L444.486 142.339L442.464 142.019C441.997 142.989 442.242 142.504 441.728 143.473C436.602 144.125 419.106 143.885 413.209 143.771C399.174 143.499 383.759 144.2 369.919 143.781C369.558 142.604 369.748 142.993 370.076 141.495C372.09 139.169 373.649 140.478 375.356 138.317C375.243 133.089 375.729 136.116 378.175 133.933C379.088 131.488 378.816 128.897 378.789 126.228C378.809 124.003 378.638 122.265 378.448 120.063C379.128 119.431 379.117 119.233 379.294 118.327L379.459 117.435L380.508 116.857C381.703 113.828 380.643 112.067 381.756 109.53C386.708 108.547 386.046 106.043 385.937 101.829L385.91 94.7017Z" fill="#38CD9B"/>
<path d="M385.912 94.7017C401.071 94.7353 417.577 94.4332 432.652 94.8442C432.631 96.9195 432.223 100.577 433.532 101.988C418.869 101.29 401.002 101.933 385.938 101.829L385.912 94.7017Z" fill="#16705C"/>
<path d="M380.51 116.858L383.42 117.446L409.59 117.475L409.568 126.363C403.638 126.442 397.595 126.596 391.674 126.436C387.003 126.532 383.428 126.454 378.79 126.229C378.81 124.004 378.64 122.266 378.449 120.064C379.13 119.432 379.119 119.234 379.296 118.328L379.461 117.436L380.51 116.858Z" fill="#E5FCF8"/>
<path d="M380.51 116.858L383.42 117.446C384.085 120.43 383.782 122.876 383.947 125.872C386.375 125.946 389.328 125.968 391.674 126.436C387.003 126.532 383.428 126.454 378.79 126.229C378.81 124.004 378.64 122.266 378.449 120.064C379.13 119.432 379.119 119.234 379.296 118.328L379.461 117.436L380.51 116.858Z" fill="#C7F1E2"/>
<path d="M421.851 117.442L448.629 117.462L448.561 126.4C439.765 126.632 430.681 126.514 421.861 126.506L421.851 117.442Z" fill="#E5FCF8"/>
<path d="M290.143 180.731C291.679 180.871 294.752 180.887 295.75 181.787C296.213 184.485 296.987 185.042 299.632 184.896C300.301 185.85 300.044 186.555 299.982 187.747L299.944 188.609C299.698 187.868 299.388 186.936 299.015 185.811C298.218 185.697 293.742 185.422 293.313 184.82C291.09 181.699 293.378 182.607 290.143 180.731Z" fill="#14604E"/>
<path d="M259.572 110.842C263.3 111.025 267.563 112.264 268.521 108.059C270.779 105.91 277.481 107.972 280.656 107.511C284.522 106.951 281.695 106.291 283.428 103.949C284.655 103.883 285.205 103.84 286.41 103.627C286.59 102.821 286.704 102.021 286.792 101.2C288.643 100.346 297.366 101.049 299.974 101.172C300.066 103.257 299.701 105.442 300.549 107.238C302.083 108.345 302.227 108.01 304.419 108.256C301.094 108.406 301.033 108.349 297.84 109.395C296.94 109.694 296.025 109.949 295.098 110.155C289.481 110.228 285.62 109.7 282.737 115.254C278.454 116.385 274.462 114.693 270.818 115.905C270.544 117.136 270.582 117.505 270.56 118.75C268.528 120.142 265.149 118.382 263.173 119.33C262.992 120.427 262.955 120.878 262.915 121.991C260.779 123.216 256.327 121.245 255.944 123.648C255.768 124.754 256.697 124.583 255.855 125.971C254.045 126.178 251.889 125.864 250.957 126.547C250.189 128.249 250.518 128.346 249.248 128.844C247.491 128.419 247.397 128.406 245.683 128.975C245.338 130.284 245.414 129.829 245.48 131.211C243.658 132.308 238.621 134.362 236.468 135.307C236.311 136.443 236.368 136.604 236.486 137.761L235.945 138.125L234.916 137.094L234.229 137.241L233.798 139.051C232.886 139.319 232.816 139.332 231.867 139.395C231.488 140.527 231.606 140.755 231.668 141.973C229.262 143.616 229.315 140.034 228.491 146.105C225.876 147.52 226.776 145.382 225.378 147.155C224.781 150.857 225.846 153.365 225.16 156.446C223.887 156.892 223.413 156.769 222.06 156.73C220.671 158.108 220.814 178.6 221.138 181.756C222.196 182.062 221.652 181.984 222.772 181.982C223.479 184.553 221.778 189.033 223.578 190.858L225.399 190.806C226.782 192.877 225.256 196.884 226.542 198.897L227.244 198.902C228.083 198.916 228.41 198.943 229.222 199.048C229.721 200.093 229.538 200.888 229.461 202.058L229.888 202.647C230.991 202.334 230.888 202.237 232.007 202.423C231.9 203.602 231.938 203.272 231.508 204.41C233.259 206.037 234.068 204.106 234.979 205.677L234.705 207.126C235.866 208.199 237.221 207.782 238.763 207.627L239.525 208.164L239.68 210.235C240.938 210.374 240.478 210.39 241.711 210.071C242.541 211.046 242.388 212.975 242.466 214.509C244.578 214.467 246.767 214.18 248.606 215.037C250.609 217.461 248.412 217.808 250.518 217.938C252.443 218.056 252.34 217.135 254.217 218.003C254.459 219.273 254.464 219.629 254.497 220.933C256.494 221.974 257.742 220.147 259.842 221.311L259.849 222.043C259.862 222.837 259.889 223.307 259.963 224.082C261.942 225.226 267.58 223.745 270.069 224.82C270.255 225.999 270.286 226.557 270.329 227.755C272.493 229.312 273.787 225.744 273.444 229.951C275.505 231.386 279.233 230.152 280.147 231.724L279.753 233.081C283.121 235.166 291.519 231.666 292.115 234.505C292.152 234.677 292.092 236.15 292.072 236.528C293.717 238.542 302.91 235.629 306.475 237.269L306.777 239.905C308.819 241.306 308.896 238.975 310.243 240.794L310.34 243.043C312.952 245.254 327.028 242.002 329.019 244.339L328.931 246.302C330.832 247.442 336.401 245.881 338.615 247.031C338.791 248.257 338.724 248.4 338.584 249.651C340.917 250.87 343.641 249.091 346.316 250.179C346.5 251.373 346.532 251.939 346.573 253.151C348.859 254.431 349.29 252.632 350.745 254.188L351.133 256.731C353.077 257.538 351.501 255.219 353.556 257.28C353.876 258.605 354.068 259.488 354.568 260.777L356.551 261.036C357.544 262.7 357.622 272.3 356.835 274.109C355.596 274.424 355.43 274.381 354.133 274.393C352.986 276.32 354.989 276.498 353.522 277.91L351.04 278.003C349.397 280.3 352.321 278.44 350.336 281.047C348.645 281.139 346.011 280.691 345.216 281.176L345.279 282.04C345.343 283.007 345.353 283.18 345.152 284.158C342.805 285.406 339.165 283.195 337.853 285.25L337.793 287.54C334.531 289.572 325.229 286.051 324.225 289.489C324.264 289.356 323.646 291.2 323.594 291.339C320.847 291.844 313.316 291.567 310.202 291.542L286.287 291.418L116.57 291.413C114.519 291.418 105.23 290.84 104.41 292.304C103.982 293.069 103.892 294.104 103.782 295.036C103.67 292.921 103.657 288.81 105.228 287.315C106.079 287.228 106.579 287.145 107.419 286.976C107.672 286.241 107.815 285.528 107.92 284.76C109.393 284.14 138.12 284.457 142.271 284.459L266.386 284.476L304.453 284.533C307.614 284.54 326.554 285.113 327.869 283.627C327.833 282.447 327.697 281.995 328.19 280.938C331.049 280.14 336.757 281.456 338.42 279.629C338.399 278.656 338.436 277.886 338.49 276.954C338.602 275.046 343.213 276.741 344.784 275.539C344.873 274.096 344.74 272.9 345.593 271.81C347.17 271.798 346.733 271.964 348.114 271.447C349.53 267.372 348.873 264.554 345.172 261.989C343.968 261.154 345.048 260.96 344.478 260.491C342.719 259.041 340.356 260.812 338.414 259.334C338.459 258.701 338.645 257.038 338.284 256.864C336.732 256.112 329.637 254.164 328.272 253.745C327.193 252.581 326.08 251.198 325.046 249.974L325.126 249.94L306.787 249.862L306.591 244.484C300.478 244.307 289.62 244.379 283.955 243.537C283.12 242.375 283.43 241.694 283.385 239.94C281.368 238.054 276.708 239.803 273.883 239.171C272.108 238.773 271.175 235.148 270.373 234.045C269.624 233.018 265.915 234.17 263.977 233.341L263.911 232.858C263.875 232.605 263.632 231.104 263.604 231.091C261.419 230.116 256.891 231.688 254.884 230.174L254.729 228.166C253.682 227.013 253.915 227.396 251.749 227.29C250.112 227.334 249.479 227.388 247.825 227.111C246.826 225.68 247.184 225.708 247.163 223.565L243.247 224.001C240.647 222.605 243.823 223.682 242.185 221.73C240.908 221.924 240.76 222.083 239.575 221.678C239.48 220.892 239.416 220.506 239.232 219.736C235.669 220.551 237.583 219.561 236.266 217.743L234.644 217.996C232.635 216.312 235.038 217.721 233.766 215.468L232.148 215.394L231.575 214.764L231.773 213.383C230.817 210.977 231.482 213.828 228.908 212.273C228.71 208.716 227.124 210.811 224.934 208.664C224.653 208.388 225.449 207.294 224.478 205.956L222.906 206.226C222.013 205.355 222.218 202.962 222.188 201.513C220.597 200.075 221.118 201.779 218.877 200.536C218.26 198.463 218.88 195.129 218.657 192.358C217.337 190.367 217.257 192.488 215.073 190.908C214.991 186.755 214.745 189.012 212.854 187.624C212.435 184.376 212.237 156.296 212.82 153.322C213.696 153.006 214.436 152.902 215.359 152.795C216.712 150.827 214.82 148.383 216.413 146.297C217.738 146.242 218.18 146.221 219.526 145.98C220.158 144.613 219.653 143.962 219.566 142.348C219.304 139.13 220.654 141.491 222.335 139.66C224.562 137.237 225.32 135.333 228.764 135.184C229.002 134.25 228.929 134.349 228.69 133.425C229.757 132.086 230.145 131.603 231.4 130.461C232.997 130.349 232.517 130.406 234.18 131.481L234.351 130.564L233.242 129.101L233.341 128.392C234.808 128.308 234.263 128.596 235.305 127.893L235.081 126.583C236.985 125.614 239.351 127.183 241.113 125.991C241.195 122.215 242.431 124.308 245.169 121.8L245.052 119.814C246.517 119.133 249.144 119.258 250.986 119.141C253.437 117.491 250.864 118.843 252.649 116.417C254.556 115.578 257.106 115.851 259.287 115.876L259.572 110.842Z" fill="#136A57"/>
<path d="M247.163 223.565C248.918 223.953 249.66 223.935 250.912 225.217L251.749 227.29C250.111 227.335 249.479 227.389 247.825 227.112C246.826 225.681 247.184 225.709 247.163 223.565Z" fill="#14604E"/>
<path d="M412.326 236.987C414.453 236.94 414.142 236.616 415.623 237.569C416.017 239.126 415.061 242.108 415.859 242.875C418.053 244.979 418.593 241.938 418.68 246.784C420.353 248.653 420.495 247.24 420.964 248.015C422.048 249.806 420.582 252.67 421.539 254.598L423.289 254.646C424.039 256.694 423.159 284.287 422.569 287.739C420.93 289.522 419.267 287.53 418.42 289.265C417.745 290.649 418.828 295.473 417.881 296.901C417.884 296.899 415.681 297.179 415.679 297.182C414.812 298.499 415.957 301.056 414.777 301.602C414.758 301.611 412.247 302.105 412.243 302.11C411.059 303.729 412.696 304.671 411.388 305.684C409.255 305.558 410.013 305.192 408.762 306.221C408.847 307.267 408.891 307.583 409.129 308.604C407.527 309.482 406.382 310.073 404.708 310.796C404.464 312.003 404.512 312.045 404.61 313.291L404.203 313.826C403.26 313.677 402.34 313.557 401.385 313.544C399.864 315.614 400.875 317.072 399.254 317.741L397.736 317.452C396.488 318.953 398.318 319.682 396.453 319.84C394.575 319.999 394.746 319.228 393.047 320.093L392.803 322.991C390.761 324.178 387.872 322.116 385.606 323.415C385.473 324.336 385.362 325.259 385.272 326.185C383.348 327.262 380.923 326.028 378.537 327.105C377.575 330.921 374.153 329.98 370.679 329.938C370.447 331.823 370.193 333.413 370.229 335.32C366.609 335.362 354.241 335.056 351.947 336.146L351.684 336.731C351.139 337.923 349.874 340.67 348.604 340.773C336.557 341.761 318.786 341.656 307.229 341.653L168.274 341.691L127.448 341.684C121.694 341.686 109.454 341.43 104.104 342.207C103.447 343.529 103.651 343.666 103.672 345.257C102.169 346.395 98.2747 345.934 96.2757 345.888C92.8955 345.81 91.8292 349.724 89.8148 351.779C89.1623 352.443 87.7114 350.039 87.7377 354.036C85.176 355.374 86.117 353.08 84.7386 355.103C84.4537 358.212 83.9383 365.267 85.8575 367.66L86.3402 367.679C87.088 367.714 86.8021 367.694 87.6215 367.81C88.4854 370.686 87.0934 371.251 88.4073 373.093L88.8112 373.101C89.9173 373.133 90.3701 373.052 91.3365 373.601C91.5253 375.581 91.4699 376.463 91.3619 378.473C93.7457 378.396 95.909 378.056 97.9907 379.052C99.801 381.425 97.9925 381.671 100.104 382.043C102.58 382.481 106.732 381.884 108.917 382.812C109.928 384.427 110.484 385.369 110.677 387.325C113.749 388.103 119.391 386.953 123.392 387.716C123.902 388.88 123.792 388.251 123.343 389.694C121.826 391.336 121.521 391.488 119.52 392.515C118.758 395.888 119.301 398.874 118.802 402.33C118.729 400.582 118.655 398.911 118.518 397.167L117.138 396.946C115.395 394.993 117.766 396.864 117.135 394.342C113.909 393.323 110.073 395.011 107.425 393.84C107.368 392.923 107.291 392.113 107.19 391.2C104.254 390.004 100.443 391.905 98.5188 390.411L98.37 388.738C97.0352 387.236 96.9118 388.681 94.6205 387.623L94.5071 386.073C93.2739 384.24 90.6224 386.285 87.9836 384.697C87.9355 379.842 86.8529 383.212 84.2604 381.07C84.2804 379.877 84.3911 379.611 83.9891 378.514C83.3911 378.359 82.2958 378.058 81.7841 378.073C79.2424 378.15 81.6797 373.662 80.0763 371.668C78.8794 371.649 78.3295 371.752 77.2442 371.274C76.7796 368.721 76.4974 356.584 77.3885 354.579C78.4129 354.505 78.6906 354.484 79.6834 354.246C80.4892 352.57 79.9084 350.776 80.3131 348.365L80.8167 348.263C81.4038 349.141 81.1207 348.88 82.0209 349.444C82.7795 347.814 84.0499 344.609 85.127 343.27C85.4491 342.87 86.7704 343.252 87.4981 343.358L88.1043 342.827C88.1678 341.598 88.0262 340.97 88.7794 340.052L90.3874 340.311C91.1623 339.423 90.969 338.318 91.1051 336.847C92.9971 335.08 99.477 336.505 103.336 336.045C104.111 335.161 103.84 335.009 103.905 333.502C105.404 332.187 111.346 332.686 113.619 332.705C128.053 332.827 142.501 332.908 156.934 332.883L299.437 332.793L325.835 332.636C330.163 332.641 344.866 333.058 348.009 332.172C348.867 330.754 348.695 329.118 348.727 327.419C353.511 327.377 357.77 327.769 362.614 327.469C363.815 326.252 362.553 326.085 363.439 323.748C365.226 323.276 372.671 323.58 375.055 323.542C375.813 322.713 375.526 322.183 375.563 320.693C376.957 319.511 378.922 320.781 381.642 320.005C381.908 318.373 382.161 317.057 382.539 315.448C383.392 315.316 383.201 315.251 383.948 315.513C390.415 317.776 388.236 313.891 390.097 311.808C391.369 312.029 391.689 312.182 392.963 311.945C393.05 310.992 393.073 310.292 393.109 309.338C394.607 308.157 396.243 308.299 398.28 308.161C398.81 307.318 398.789 306.997 398.834 306.007C399.348 306.184 399.865 306.352 400.384 306.512C402.654 303.922 399.449 305.957 401.771 303.26C403.263 302.828 403.756 302.834 405.263 302.735C406.514 300.727 403.999 297.981 406.046 295.996L408.764 296.12C409.981 294.742 408.408 294.782 409.897 292.385C410.584 292.208 411.269 292.081 411.973 291.978C413.835 288.879 411.874 283.208 413.014 280.835C414.237 280.777 414.6 280.757 415.791 280.512C416.269 277.869 415.886 261.689 415.782 258.497C414.955 257.925 413.915 258.151 412.677 258.134C413.307 253.603 412.517 242.241 412.326 236.987Z" fill="#136A57"/>
<path d="M52.6755 314.082C56.2607 314.11 78.3239 314.709 79.8574 313.651V311.252C81.6632 309.466 86.2266 310.93 88.3419 310.008C88.2039 309.097 88.1949 309.029 88.1667 308.073C90.144 307.43 92.8436 306.582 94.7737 305.761C96.7283 304.93 95.0187 304.573 95.8662 302.347C97.0795 302.269 97.1675 302.363 98.2174 301.809L98.9823 298.436C100.361 297.583 101.844 298.035 103.764 298.157C101.474 298.422 101.705 298.02 100.343 299.279C98.6983 303.289 101.77 306.489 99.3 309.893L98.2029 310.266C97.4642 312.469 97.878 314.349 97.7446 316.654C96.0151 316.207 96.3154 316.004 94.8817 316.464C94.6603 318.51 95.1612 318.913 94.261 320.205H93.408C92.4589 320.207 92.0804 320.243 91.1222 320.402C90.605 321.559 90.7202 321.679 90.7266 322.98C89.1849 324.277 85.7312 322.43 83.8565 324.111L83.9127 326.623C82.3011 328.122 79.1887 326.488 77.1152 327.267C76.7922 328.594 76.7858 328.938 76.6878 330.264C75.1996 331.396 56.8905 330.933 53.5602 330.941C51.9523 330.001 52.1156 329.532 52.0439 327.554C49.7173 326.214 47.7708 327.877 45.6293 326.806C45.6112 325.922 45.5803 325.074 45.4034 324.206C44.0395 323.664 44.0014 323.835 42.4688 323.887C41.2437 321.91 42.956 321.689 41.418 320.388C39.6249 320.25 35.252 319.756 33.9952 320.687L33.9943 323.01C32.1277 324.681 29.9608 321.378 29.8392 327.763C29.8047 329.568 26.1914 326.267 26.489 330.525C26.5806 331.845 26.7503 335.038 26.1877 336.056C24.9881 336.182 24.6269 336.186 23.4201 336.135C22.088 337.861 23.7658 341.357 22.5453 343.299L19.882 343.573C19.0399 345.035 19.0681 372.873 19.6715 375.444C20.7341 375.726 21.4582 375.868 22.5426 376.058C24.8937 379.577 19.5136 385.788 25.7331 385.205C27.0915 387.273 25.666 391.68 26.9436 392.946L28.1169 392.758C29.0688 394.815 30.3564 398.402 32.3355 399.194L33.9544 398.992C35.3446 400.711 33.5415 400.69 35.0197 401.975L37.1068 401.986C38.6004 403.647 36.7465 403.633 38.4089 405.125L40.7446 405.12C42.3962 406.977 40.6294 407.58 42.5241 408.716C44.3272 408.773 44.2292 408.447 45.162 409.399L45.3208 411.654C47.1275 412.941 49.7753 411.531 51.9704 412.759C52.0548 414.643 51.7 414.966 52.6945 415.916C54.1364 415.835 55.3932 415.739 56.8442 415.804C57.3678 417.465 57.4005 418.307 57.5883 420.062C59.669 420.968 62.1082 419.673 64.1218 420.697C64.4838 421.806 64.4121 422.293 64.4321 423.459L65.0074 423.965C67.8259 423.776 70.6389 423.096 72.696 424.742C72.8612 425.63 72.9691 426.342 73.0789 427.239C76.1896 428.85 80.5062 425.229 79.283 430.541C79.0661 430.603 73.6425 432.916 73.481 433.018C71.5917 433.183 67.8604 433.826 66.4638 432.708C65.8559 432.222 65.9638 431.041 65.8522 430.033C59.9612 430.262 64.8586 429.516 60.2679 427.219C58.8224 427.091 56.532 427.049 55.3179 426.425C55.3252 425.129 55.3932 425.163 54.8978 423.987C53.9504 423.744 53.6256 423.684 52.6746 423.615L51.8579 423.56C51.4586 422.973 51.2145 422.542 50.936 421.906C50.1982 422.473 50.4278 422.272 49.8225 422.818L49.4451 423.165C47.5658 422.868 45.6683 420.002 44.0504 418.866C43.5295 418.501 42.4933 419.468 41.1911 418.101C41.2319 416.962 41.3971 416.333 40.8726 415.351C39.4035 415.101 38.9135 415.229 37.4679 415.404L37.026 414.875C37.1231 413.377 37.2665 413.791 36.8454 412.466C31.0243 412.365 35.3409 409.59 33.1985 409.634C28.9599 409.722 31.7775 407.975 30.2775 406.348C29.5579 406.418 28.9009 406.528 28.1995 406.689C27.7567 405.227 27.0117 402.251 26.2131 401.037C25.9182 400.588 24.2132 400.88 23.4219 400.922C22.3339 399.472 23.3021 397.108 22.4019 394.494C21.2495 393.951 19.9138 394.237 18.5808 394.341C15.2505 393.156 16.4302 391.878 16.4229 388.796C16.4157 385.444 15.8975 385.574 13.2932 384.247C13.0809 383.67 12.8077 378.66 12.7778 377.844C11.5999 377.697 11.9992 377.857 10.992 377.3C10.3423 365.989 10.9203 351.151 10.7343 339.311C10.8495 338.134 10.7878 338.193 11.5509 337.303C12.7006 337.02 13.3703 336.888 14.452 336.408L15.1317 336.1C15.167 334.482 14.9266 333.896 15.6806 332.695L17.7069 332.864C20.6642 331.068 17.8893 326.778 19.6334 323.945C20.9473 323.798 22.0626 323.872 22.99 323.022C22.8892 318.792 23.4555 320.956 25.7621 319.744C26.4908 319.361 26.4264 316.821 27.9971 315.665L29.1323 316.051L29.7267 315.727C29.7285 314.45 29.5915 314.26 30.1668 313.169L31.8219 313.118L34.8827 308.009C37.4988 306.718 41.2755 307.131 43.1103 309.652C43.9715 310.836 45.045 310.422 46.3208 310.371L48.014 310.025C50.6574 312.434 47.1529 313.744 52.6755 314.082Z" fill="#136A57"/>
<path d="M13.292 384.247C14.9798 382.896 14.0669 383.21 16.0442 383.05C19.3264 384.94 18.6966 390.886 18.5796 394.34C15.2493 393.156 16.429 391.877 16.4217 388.796C16.4144 385.444 15.8963 385.573 13.292 384.247Z" fill="#14604E"/>
<path d="M10.7344 339.31C10.8496 338.133 10.7879 338.192 11.5511 337.303C12.7008 337.02 13.3704 336.887 14.4521 336.407L15.1318 336.1C14.9603 337.958 15.2679 338.036 14.3087 339.228C12.9267 339.61 12.1491 339.435 10.7344 339.31Z" fill="#091615"/>
<path d="M60.2686 427.22C61.97 427.216 63.7685 426.996 65.1641 427.845C65.7267 428.907 65.7013 428.84 65.8528 430.034C59.9618 430.262 64.8592 429.516 60.2686 427.22Z" fill="#14604E"/>
<path d="M79.2825 430.542C82.7235 431.411 85.4367 430.029 87.7906 430.981C87.8813 431.857 87.9648 432.733 88.041 433.61C90.9593 435.441 98.863 432.54 100.321 434.772L100.36 437.103C102.92 439.011 111.423 436.379 113.503 437.986C116.062 439.963 114.17 440.004 118.748 439.702L119.354 438.757C119.615 440.032 119.29 439.515 120.126 440.437L121.964 440.351C123.87 441.843 121.837 442.007 123.314 443.574C123.655 443.936 124.572 443.004 125.96 444.347C125.868 445.525 125.776 445.549 126.177 446.633C127.493 446.695 127.063 446.596 128.309 447.033C127.74 451.289 129.166 448.387 131.672 451.504C130.44 452.353 127.212 452.611 125.795 452.231C125.992 451.582 126.186 450.934 126.377 450.283C124.365 448.987 123.301 450.466 120.55 448.82C120.485 448.71 119.618 447.23 119.521 447.19C116.22 445.795 101.473 446.36 98.1035 446.35L97.8013 440.536C93.9375 440.235 80.3796 440.29 77.8334 439.686C77.4822 438.316 77.4795 437.759 77.3969 436.382L76.8025 435.946L74.9695 436.323C73.2754 435.349 75.3216 434.847 73.4805 433.018C73.642 432.917 79.0657 430.604 79.2825 430.542Z" fill="#14604E"/>
<path d="M101.775 309.721L103.742 309L104.62 307C109.623 306.19 121.74 306.66 127.439 306.733C127.571 309.933 127.687 312.585 127.535 315.778C122.171 315.77 112.828 315.595 107.184 316.035C107.156 316.037 106.078 316.963 105.916 317.123L105.311 316.63C103.733 316.536 102.828 316.597 101.607 315.752C101.125 314.078 101.582 311.545 101.775 309.721Z" fill="white"/>
<path d="M394.412 221.511C395.75 221.094 396.205 220.81 397.554 221.19C398.05 222.623 397.889 222.112 397.772 223.76C399.673 225.52 402.338 223.996 404.555 225.22L404.564 225.944C404.582 226.794 404.62 227.276 404.711 228.107C407.615 229.339 407.56 226.854 408.629 230.401C409.985 231.375 410.407 231.092 412.357 231.295C405.979 231.585 407.058 232.482 402.105 233.959C401.585 233.789 400.914 233.779 400.336 233.724C399.08 232.095 396.051 229.848 394.038 229.153L393.583 229.001L393.389 227.77C394.327 225.393 393.438 223.833 394.412 221.511Z" fill="#14604E"/>
<path d="M412.358 231.294L412.327 236.987C412.518 242.241 413.308 253.604 412.678 258.135C412.135 254.797 413.109 248.84 411.878 247.07C411.03 247.015 410.184 246.938 409.341 246.836C408.309 245.076 409.888 242.192 408.707 240.415L406.156 240.292C404.733 239.051 406.09 239.071 405.164 236.713L403.05 236.616C401.971 235.636 402.319 235.873 402.105 233.958C407.058 232.481 405.979 231.584 412.358 231.294Z" fill="#16705C"/>
<path d="M99.2995 309.894C100.443 309.914 100.649 309.905 101.775 309.722C101.582 311.547 101.125 314.079 101.607 315.753C102.828 316.598 103.733 316.537 105.311 316.631L105.916 317.124C104.756 317.801 98.8929 317.794 97.7441 316.655C97.8775 314.35 97.4638 312.47 98.2024 310.267L99.2995 309.894Z" fill="#E5FCF8"/>
<path d="M304.418 108.256L305.454 108.675L305.795 110.219C301.992 110.317 298.894 110.309 295.097 110.154C296.023 109.948 296.939 109.694 297.839 109.395C301.031 108.348 301.093 108.406 304.418 108.256Z" fill="#2FB892"/>
<path d="M42.4467 365.714C45.7697 365.716 48.9357 365.864 52.255 366.018C52.2305 367.815 51.8866 371.993 52.5708 373.18L53.7214 372.628C56.4047 373.153 54.118 377.532 55.843 379.439L57.2232 378.897L57.8502 379.474L57.8919 381.523C59.3747 384.107 58.235 381.212 60.7095 382.837L60.6778 384.7C61.6913 386.571 61.9373 384.578 64.0851 385.914L64.106 387.655C64.7829 388.672 65.802 388.366 67.6441 388.811C68.2393 390.355 68.0106 394.495 67.9979 396.365C66.3582 397.232 61.7258 397.577 59.8665 397.359C58.0707 397.146 59.6932 396.034 58.4119 394.515L56.617 394.494C54.8149 392.693 57.1261 393.987 55.6588 391.753C50.3304 390.37 53.2505 390.141 51.6443 387.743L50.295 387.69C48.9066 386.763 49.4066 384.729 48.207 382.087L45.9629 381.813C45.1181 380.308 45.9638 377.749 45.7234 376.152C45.4575 374.38 44.8114 375.882 42.6808 374.614C42.1327 372.03 42.3822 368.462 42.4467 365.714Z" fill="white"/>
<path d="M366.026 231.269C367.482 231.289 368.393 231.213 369.799 231.649C369.906 232.966 369.681 232.548 370.356 233.512C371.865 233.548 372.153 233.339 373.316 234.046L372.844 235.433L373.475 235.756L374.639 234.869L375.442 235.219L375.276 236.399C376.056 238.137 376.726 236.225 378.682 237.917C378.593 239.468 378.404 238.977 378.975 240.238C380.324 240.207 380.597 240.144 381.94 240.434C382.641 241.544 382.345 240.995 382.074 242.85L382.593 243.502L384.832 243.669C386.444 245.195 384.553 245.437 385.993 247.522C387.069 247.491 387.429 247.486 388.493 247.61C389.312 248.842 389.015 250.634 388.957 252.206C389.861 253.704 389.699 253.196 391.704 254.092C392.408 255.788 392.307 259.153 392.026 260.95L391.081 261.388L381.846 261.378C381.877 259.607 381.897 257.837 381.906 256.067C381.92 254.481 382.131 254.833 381.435 253.524L379.151 253.445C378.422 252.553 378.71 252.27 378.715 250.772L378.125 250.33C372.787 250.528 375.848 247.983 372.5 246.132C371.329 246.234 371.648 246.361 370.64 246.011C370.831 245.293 370.957 244.723 371.1 243.993C369.268 242.379 369.242 244.39 366.993 242.869L366.911 241.303C366.098 239.986 364.974 240.513 362.596 239.822C362.153 238.366 362.24 238.248 362.316 236.768C363.859 233.372 365.687 237.182 366.026 231.269Z" fill="white"/>
<path d="M381.535 271.782L391.42 271.664C391.445 273.628 391.844 279.639 390.878 280.947L388.63 281.192C387.986 282.246 388.261 282.182 388.478 283.751C387.359 285.62 387.133 283.442 385.336 284.953L385.7 286.892C384.646 289.147 384.207 286.94 382.34 289.235L382.614 291.025C381.274 292.786 380.036 290.839 377.711 292.698C377.982 293.513 378.061 293.838 378.223 294.683C376.451 296.192 376.898 294.087 374.746 295.43L374.869 296.873L374.437 297.381L372.746 295.956L372.513 296.141C372.404 296.97 372.448 297.361 372.626 298.179C371.316 298.515 369.795 298.791 368.476 298.49C367.031 298.161 367.272 297.923 367.329 296.894C367.341 296.686 365.651 294.331 365.474 294.085C365.244 292.099 365.139 293.058 365.937 291.117L367.344 291.169C368.305 290.053 368.017 290.491 367.907 288.531L368.637 287.884C370.113 287.627 371.65 287.598 372.638 286.607C372.247 286.128 372.038 285.82 371.689 285.314C373.236 282.428 372.698 285.875 373.922 284.304C375.374 282.442 377.818 279.308 379.201 277.536C379.876 277.523 380.551 277.525 381.225 277.542C381.805 276.018 381.573 273.508 381.535 271.782Z" fill="white"/>
<path d="M282.707 214.86L280.953 214.553C276.318 210.062 285.642 201.145 289.928 205.091C290.433 205.554 290.232 206.827 290.235 207.57C292.347 207.627 294.474 207.434 296.246 208.42C296.873 209.493 296.816 209.425 296.837 210.68C298.96 212.288 300.46 211.201 303.014 211.41C305.13 211.583 302.685 213.354 304.948 213.816C307.361 214.308 313.539 212.073 313.905 215.305C314.066 216.721 313.252 219.289 312.594 220.583L311.56 221.326L311.528 221.841C311.481 222.476 311.432 222.816 311.327 223.433C309.543 223.94 310.352 224.006 308.803 223.598L308.517 223.038C308.212 222.451 307.988 222.053 307.651 221.496C303.73 220.539 300.928 221.944 297.212 221.153C296.721 220.073 296.894 219.581 296.984 218.378C295.471 216.993 290.513 218.618 287.86 217.654C287.087 216.628 287.181 216.219 287.028 214.927C285.552 214.227 284.445 214.484 282.707 214.86Z" fill="white"/>
<path d="M282.707 214.86L280.953 214.553C276.318 210.062 285.642 201.145 289.928 205.091C290.433 205.554 290.232 206.827 290.235 207.57L286.661 207.909C282.342 208.277 282.355 211.278 282.707 214.86Z" fill="#E5FCF8"/>
<path d="M76.6465 396.753C78.484 397.248 80.9105 397.379 82.454 398.084C83.3569 398.496 81.9604 398.36 82.2217 400.001C83.3787 399.628 82.9513 399.655 84.1282 399.705L84.8532 402.062C87.5084 402.595 91.6063 401.364 94.3259 401.685C97.7187 402.086 95.1689 402.991 96.6017 404.973L98.0663 404.987C99.4002 406.242 99.1089 406.973 100.04 408.42C102.007 408.609 104.049 408.627 106.03 408.684C106.169 411.271 106.234 413.954 106.333 416.551L106.231 417.61L105.411 418.227C104.125 418.311 103.487 418.431 102.219 418.112C102.002 417.194 102.06 417.526 101.927 416.667L101.843 416.103C99.2169 415.207 93.7097 416.816 91.2234 415.411C91.0555 414.465 90.9838 413.542 90.9566 412.582C88.9993 411.133 84.7897 412.617 82.7689 411.509C82.8215 410.319 82.8378 410.401 82.3605 409.31C80.8188 408.316 78.9169 408.625 77.0122 408.664C77.0567 404.624 76.8434 400.78 76.6465 396.753Z" fill="white"/>
<path d="M323.85 215.151L324.87 215.159C328.587 215.152 328.675 214.593 330.519 217.45C331.221 218.538 337.339 217.063 339.111 218.443C338.903 219.842 338.849 219.333 339.161 220.67C341.32 221.395 343.691 220.769 345.98 221.093C349.891 221.647 347.127 221.602 349.278 224.139C351.208 224.928 353.44 224.624 355.597 224.552C355.679 231.38 354.14 227.963 352.73 232.507L353.02 233.182L352.707 233.819C350.055 233.865 348.051 234.254 346.075 232.553C345.208 227.495 338.715 232.15 335.254 229.972C335.17 228.983 335.06 227.997 334.923 227.014C333.651 226.571 325.816 226.351 323.771 226.198C323.865 222.579 323.829 218.786 323.85 215.151Z" fill="white"/>
<path d="M247.701 180.933C251.665 181.075 252.68 180.547 256.55 179.894C257.301 180.934 256.956 181.636 256.904 183.274C258.08 185.488 257.059 183.062 259.446 184.477L259.507 186.761C260.662 188.587 261.033 187.663 263.19 189.468L263.288 190.999C264.86 193.177 263.438 190.579 265.749 191.958L265.762 193.71C269.357 195.597 273.074 196.766 273.464 200.984C272.846 202.574 272.518 202.915 270.932 202.84L270.269 203.703C270.186 206.152 270.553 207.418 266.901 207.523C266.163 207.545 265.366 207.056 264.721 206.697C264.431 205.752 264.454 206.04 264.429 205.064L263.615 204.078L261.926 203.989C259.554 201.702 262.849 203.643 261.024 201.198L259.165 201.107C256.712 199.452 259.887 200.669 258.052 198.534C251.835 197.395 256.049 196.981 253.986 194.565L252.124 194.666C250.832 193.178 251.786 190.717 250.514 188.392C249.29 188.122 249.257 188.222 248.357 187.393C247.458 185.37 247.696 183.207 247.701 180.933Z" fill="white"/>
<path d="M270.27 203.702C270.186 206.151 270.554 207.417 266.902 207.522C266.164 207.544 265.367 207.056 264.722 206.697C264.431 205.751 264.454 206.04 264.43 205.063L265.764 204.26C267.775 204.284 268.468 204.443 270.27 203.702Z" fill="#C7F1E2"/>
<path d="M152.485 306.874C159.165 306.734 166.316 306.906 173.03 306.955L173.087 315.842L159.01 315.806C152.55 315.835 146.09 315.811 139.631 315.733L139.641 307.009L152.485 306.874Z" fill="#E5FCF8"/>
<path d="M296.312 124.542C301.342 123.701 297.703 121.732 304.177 122.366C304.055 125.673 303.914 128.891 303.959 132.202C301.907 132.231 294.566 132.125 294.258 133.328C292.981 138.301 289.839 134.494 284.656 136.107C284.337 137.089 284.374 136.716 284.546 137.731L283.988 138.24L282.712 138.137C281.495 139.336 281.55 139.226 281.073 140.863C279.172 141.377 275.918 141.182 273.837 141.164C273.638 138.466 273.468 135.766 273.328 133.064C274.524 132.417 275.117 132.496 276.463 132.423C277.71 130.119 274.81 132.049 277.146 129.833C280.695 128.891 279.694 131.737 281.655 127.635C284.623 127.048 286.289 127.539 289.088 127.391C289.263 126.291 289.307 126.154 289.694 125.105C291.518 124.108 294.042 124.509 296.312 124.542Z" fill="white"/>
<path d="M289.089 127.392C289.263 126.292 289.308 126.154 289.694 125.105C291.518 124.109 294.043 124.51 296.313 124.543C294.562 127.579 292.444 127.066 289.089 127.392Z" fill="#E5FCF8"/>
<path d="M278.7 306.736C283.835 307.4 304.313 307.048 310.637 307.072L310.658 315.766C303.258 315.785 284.223 315.328 277.762 315.97C277.539 315.831 277.127 315.321 276.926 315.096C276.66 312.776 276.282 309.766 277.122 307.528C277.359 306.893 277.735 307.022 278.7 306.736Z" fill="#E5FCF8"/>
<path d="M277.762 315.97C277.539 315.831 277.127 315.321 276.926 315.096C276.66 312.776 276.282 309.766 277.122 307.528C277.359 306.893 277.735 307.022 278.7 306.736C278.994 310.519 279.284 312.45 277.762 315.97Z" fill="#C7F1E2"/>
<path d="M185.224 307.036C196.368 306.956 207.512 306.947 218.656 307.006L218.669 315.744C207.467 315.862 196.265 315.879 185.063 315.795C185.061 312.915 185.164 309.926 185.224 307.036Z" fill="#E5FCF8"/>
<path d="M232.151 307.071C243.081 306.941 254.012 306.934 264.942 307.05L265.066 315.426C262.338 316.385 236.551 315.807 232.124 315.789L232.151 307.071Z" fill="#E5FCF8"/>
<path d="M326.647 304.237C329.687 304.414 331.951 304.647 334.976 304.228C340.183 297.585 339.811 302.325 345.549 300.638C346.448 299.562 346.126 299.924 346.434 298.333C347.922 296.99 351.987 296.772 353.345 297.944L353.465 300.221C354.539 300.904 354.398 300.797 355.595 301.266C356.566 302.795 356.348 301.989 356.331 303.753L355.619 304.884C353.57 305.204 351.277 304.895 350.431 305.857C350.198 308.033 350.582 307.767 349.385 309.035C345.62 310.376 341.215 309.18 339.027 310.126C338.948 310.894 338.837 311.607 338.605 312.344C336.143 313.109 328.942 313.04 325.996 313.125L324.934 312.951L324.458 312.286C324.126 309.799 323.698 306.789 325.023 304.517L326.647 304.237Z" fill="white"/>
<path d="M325.996 313.123L324.934 312.948L324.458 312.284C324.126 309.797 323.698 306.787 325.023 304.515L326.647 304.234C326.717 307.663 325.896 311.145 325.996 313.123Z" fill="#E5FCF8"/>
<path d="M245.371 169.577C245.317 167.524 244.979 163.383 245.793 161.808L247.539 161.644C248.796 159.79 247.606 157.627 248.702 155.772L250.316 155.644C251.244 154.7 251.102 151.718 251.229 150.015C252.447 148.813 252.619 150.49 254.452 149.232L254.499 146.435C255.915 145.157 255.838 146.854 257.827 145.787C257.826 144.409 257.812 144.038 258.034 142.638C259.763 141.912 260.644 141.785 262.329 142.544C263.934 145.578 263.631 145.732 266.786 145.4C266.847 145.522 266.909 145.644 266.971 145.766C267.306 145.853 267.142 148.535 267.16 148.52C264.709 150.551 261.625 152.668 259.997 155.47C259.899 155.705 259.8 155.94 259.701 156.174C258.984 157.348 258.871 158.012 258.665 159.32L258.607 159.717C257.817 159.81 256.273 159.82 255.847 160.27C254.277 161.927 255.058 167.329 255.248 169.648C252.385 169.388 248.345 169.544 245.371 169.577Z" fill="white"/>
<path d="M52.2408 333.487C54.0429 333.387 55.0746 332.994 56.3496 333.825L56.3732 335.046C57.4231 335.687 57.4929 335.609 58.7062 335.987C60.8822 339.346 57.4512 340.631 55.5465 342.973C55.4984 343.897 55.4576 344.666 55.4258 345.282C54.4622 346.153 54.9304 345.767 53.0529 345.806C50.7925 347.379 53.473 352.604 52.2208 356.857C51.2117 357.565 49.21 357.346 47.8479 357.339L42.5349 357.404C42.5086 354.995 42.5957 348.999 43.7336 347.081C44.2563 347.805 44.0295 347.409 44.406 348.275L45.0848 347.743C45.0984 347.657 45.1129 347.572 45.1266 347.487C46.6311 345.261 44.5658 341.25 46.1547 339.156C47.2091 339.293 47.2109 339.339 48.2399 339.143L48.3316 337.064C49.6945 335.532 49.2744 336.006 51.4313 335.237L52.2408 333.487Z" fill="white"/>
<path d="M95.0228 288.345C95.0265 289.63 95.188 290.314 94.4058 291.306L92.5247 291.471C90.6971 293.287 92.6318 293.569 91.1908 295.558L89.483 295.252C87.7072 296.498 89.8142 297.209 88.1092 298.825L85.5893 298.62C84.3797 299.653 85.0774 300.965 84.7335 301.195C83.2063 302.216 79.4542 300.848 77.7945 302.268C77.8153 303.548 77.9233 304.17 77.4469 305.373C76.0731 305.704 71.8926 305.8 70.5387 305.644C67.4988 305.294 53.7241 306.525 52.1697 304.783C52.1669 303.5 52.2894 302.653 51.735 301.5C49.4056 300.509 45.2469 302.331 43.9992 300.499L44.9139 298.961C44.0564 296.595 40.4602 301.071 40.5219 295.09C40.5337 293.967 38.6699 295.205 37.287 294.19C37.2969 292.599 37.4848 292.614 36.8196 291.273L34.8678 291.462C33.8197 290.179 34.0021 286.848 33.9558 285.002C32.8097 283.227 32.6273 285.186 30.5221 283.641C30.1147 280.832 29.7481 260.947 30.8143 259.322C32.1292 259.214 32.4885 259.218 33.787 258.868C34.3478 257.578 34.1854 253.481 34.3197 251.621C36.2697 248.486 34.7779 252.163 37.3695 250.127C37.4748 245.03 38.2252 248.231 40.7651 246.314L40.8695 244.263C42.1843 242.684 42.4629 244.475 44.3277 243.146C44.3885 237.232 48.5354 242.152 51.5372 239.703L51.7713 236.827L52.4374 236.295C55.6351 236.189 75.8943 235.748 77.6547 236.842C77.7119 238.197 77.6883 238.509 78.0122 239.856C79.6828 240.883 81.5004 239.625 84.0539 240.572L84.1401 242.214C85.8297 243.824 85.278 241.663 87.3497 243.207C87.4558 243.286 89.5774 247.507 89.973 247.557C91.5338 247.752 90.2198 246.711 92.3278 247.872C92.3305 249.034 92.1708 249.612 92.8314 250.522C94.2724 250.501 93.7751 250.343 95.0047 250.889C95.8431 253.629 94.7688 255.436 95.3159 258.773C97.1807 260.453 97.3985 258.426 99.5064 259.894C99.9801 263.302 99.6126 268.091 99.6053 271.624C99.599 274.34 100.334 282.558 98.9329 284.333C98.5591 285.439 98.2488 286.405 97.9221 287.534C96.5891 288.447 96.8531 288.16 95.0228 288.345Z" fill="#2FB892"/>
<path d="M95.0244 288.345C95.0834 287.015 95.1469 286.396 95.3574 285.083C96.705 284.077 96.8683 284.426 98.9345 284.333C98.5606 285.439 98.2503 286.405 97.9236 287.534C96.5906 288.447 96.8547 288.161 95.0244 288.345Z" fill="#091615"/>
<path d="M53.0021 243.27C56.444 243.215 74.2178 242.394 76.225 243.766C76.2667 244.93 76.1805 245.55 76.6496 246.603C78.5153 246.84 80.3574 246.996 82.1586 247.517L82.5243 250.589C84.7439 252.289 82.7403 249.598 85.1513 251.268C85.4027 252.599 85.4081 253.22 86.203 254.331C86.9925 254.436 87.7611 254.452 88.5569 254.441C89.2229 255.937 88.6776 258.016 88.9053 259.643C89.1494 261.389 90.183 259.58 91.8581 260.97C92.702 267.499 91.9289 276.373 91.9162 283.049C91.9135 284.386 88.566 283.397 88.1749 284.174C87.3845 285.743 87.2547 289.58 86.0805 290.752C82.2848 289.983 84.6023 290.81 83.3492 293.083C82.3265 293.026 82.2612 292.998 81.2648 293.189C81.7094 294.59 81.8238 293.992 81.2739 295.081C79.7131 295.109 78.3175 295.086 76.7567 295.04C75.8774 296.181 76.1642 296.994 76.0616 298.762C72.6243 298.801 55.8741 299.537 53.9495 297.934C53.9322 296.933 53.8914 296.247 53.7934 295.25C52.2381 294.209 50.2463 295.355 47.6973 294.651L48.6265 293.294L48.171 292.69L46.1329 293.067C44.4796 291.47 46.3198 291.915 45.2509 289.814C44.476 289.75 43.7001 289.699 42.9234 289.661C42.4941 288.831 42.5014 288.695 42.4324 287.787L42.3753 286.957C41.7147 286.827 41.0568 286.685 40.4007 286.533C40.388 285.255 40.4107 284.172 40.4597 282.893C39.3218 283.292 39.1775 283.465 38.0069 283.368C36.6648 281.688 37.3245 268.385 37.1276 265.346C37.0369 263.933 37.0405 262.459 38.0287 261.496C44.3562 261.474 39.3889 257.52 41.5531 254.25C42.8099 254.195 43.1203 254.357 44.0812 253.639C44.2046 252.48 44.2654 252.106 44.5522 250.978C46.7699 249.438 50.4414 246.494 52.8733 245.705L53.0021 243.27Z" fill="#B3F8DE"/>
<path d="M57.9981 257.816C61.0153 257.957 67.2774 258.087 70.6303 257.805C70.8608 258.005 71.0904 258.207 71.3209 258.407L71.3291 258.887C71.153 260.873 70.8799 261.766 71.6058 263.539C73.6485 264.383 74.4098 262.148 76.7237 264.506C76.8045 266.07 76.6393 268.429 77.4324 269.45C79.4006 269.494 79.5839 269.128 80.652 270.137C80.4687 273.902 76.9215 275.872 73.81 277.142C72.7846 278.919 73.4543 280.998 73.3771 283.523L55.5635 283.497L55.5925 275.341C51.2477 275.522 48.5563 276.206 49.0971 270.004C50.3594 268.752 50.4846 268.837 52.1407 268.324C52.6624 267.077 52.4328 265.268 52.3748 263.842L58.0171 263.532L57.9981 257.816Z" fill="#136A57"/>
<path d="M45.3524 263.939C46.5529 263.942 46.7144 263.828 47.777 264.319C49.0311 266.417 49.2135 268.289 47.1001 269.788C45.8723 269.73 45.0874 269.836 44.0929 269.138C42.7508 266.761 42.3615 265.103 45.3524 263.939Z" fill="#136A57"/>
<path d="M81.1431 264.015C82.7111 263.983 83.9543 263.797 85.3789 264.401C86.2909 266.015 85.9561 267.216 85.9579 269.281C84.3055 269.42 83.1984 269.684 81.673 269.068C80.7629 267.389 81.1195 266.14 81.1431 264.015Z" fill="#16705C"/>
<path d="M50.4543 287.894C50.3907 286.372 50.2147 285.4 50.77 283.981C52.0305 283.071 53.9034 283.418 55.5649 283.497C55.5903 285.016 55.7736 286.153 55.1302 287.506C53.4152 288.369 52.5686 287.991 50.4543 287.894Z" fill="#14604E"/>
<path d="M73.4832 283.652C75.1365 283.589 76.2399 283.412 77.8116 283.941C78.768 285.595 78.4214 285.787 78.464 288.006C76.8161 288.046 75.7254 288.178 74.1211 287.743C73.0839 286.202 73.4822 285.938 73.4832 283.652Z" fill="#136A57"/>
<path d="M62.4526 250.488C63.9789 250.43 65.1268 250.231 66.5242 250.805C67.3818 252.005 67.0923 253.343 67.0397 254.906C65.3791 254.971 64.6277 255.106 63.0171 254.618C62.0706 253.072 62.4445 252.664 62.4526 250.488Z" fill="#136A57"/>
<path d="M145.199 381.551C150.665 381.519 166.212 381.121 170.682 381.864C171.659 382.951 171.303 383.328 171.363 385.243C173.664 386.574 176.003 384.831 178.235 386.035L178.369 387.685C179.247 388.133 182.787 389.935 182.803 390.108C183.176 394.197 184.122 391.718 185.737 392.901C185.798 394.165 185.707 394.557 186.265 395.689C187.043 395.76 187.784 395.739 188.562 395.674C189.732 397.732 188.103 401.521 189.375 403.906C190.315 404.025 191.223 404.038 192.17 404.007C193.373 405.773 192.552 414.709 192.521 417.415C192.492 419.954 193.235 428.266 191.989 429.704C190.537 429.723 190.446 429.657 189.087 430.084C187.895 432.677 189.589 436.429 187.715 437.776C186.378 437.496 186.119 437.419 184.77 437.401C184.168 438.654 184.474 438.625 184.813 440.325C183.99 442.568 184.78 440.209 182.452 441.584L182.227 443.404C180.914 444.701 181.235 443.009 178.93 443.845L179.013 445.395C176.983 449.24 172.388 443.009 170.423 449.302C170.543 449.787 170.502 449.473 170.37 450.253C168.645 450.709 146.548 450.752 145.271 449.932C145.204 448.615 145.215 448.242 144.917 446.93C143.41 445.93 139.505 446.424 137.702 446.028C136.044 445.664 138.049 444.789 136.953 443.205L134.897 443.103C133.337 441.965 132.957 439.007 131.192 436.84C130.301 436.86 129.542 436.907 128.652 436.976C127.08 434.981 128.739 431.546 127.595 429.659C126.237 429.754 125.894 429.755 124.539 429.636C123.274 427.982 123.293 405.525 124.435 404.234C125.752 404.205 126.109 404.302 127.318 403.78C127.823 402.565 127.479 398.36 127.521 396.584C129.369 393.486 128.149 397.166 130.449 395.174C130.257 390.574 131.284 393.519 133.697 391.925L133.853 389.644C135.081 388.288 135.255 389.763 137.713 388.954C137.888 388.042 137.899 387.765 137.896 386.86L137.891 386.003C139.039 385.403 142.513 385.786 144.629 385.479C145.421 384.176 145.141 383.328 145.199 381.551Z" fill="#2FB892"/>
<path d="M144.613 439.316L143.982 439.406C142.638 439.591 141.719 439.923 140.596 439.31C140.514 437.898 140.619 437.272 139.731 436.081C139.054 435.993 138.379 435.889 137.708 435.769C136.697 433.344 139.454 434.886 137.33 433.24L135.947 433.215C135.094 430.722 137.42 432.021 135.531 430.52L133.957 430.247C133.295 429.182 133.338 428.448 133.212 427.202C132.221 426.657 132.537 426.841 131.309 426.714C130.602 424.288 130.791 408.802 131.306 405.99C133.903 404.941 133.218 406.495 134.495 404.995C134.375 403.216 133.802 399.746 134.745 398.655L137.295 398.242C139.288 395.264 138.22 394.489 141.941 392.017C143.086 391.95 144.232 391.895 145.379 391.851C146.015 390.622 145.834 390.616 145.825 389.132C147.601 387.722 165.856 388.21 168.978 388.504C171 390.581 167.748 389.435 170.168 391.027C172.114 390.614 171.813 390.337 173.146 391.061L173.599 393.043C174.705 393.495 174.982 393.403 176.2 393.449C177.844 395.329 175.937 395.191 177.163 396.806L178.938 396.635C179.305 397.153 180.458 399.036 180.384 399.025C183.566 399.505 181.188 403.496 182.643 405.139L184.744 405.099C185.774 406.309 185.57 424.895 185.183 427.589C182.882 428.902 182.831 427.334 181.548 428.571C181.515 430.765 181.762 432.789 180.706 434.609L180.004 434.892L178.757 434.213L178.155 434.567C178.236 435.326 178.322 436.086 178.412 436.843C175.882 438.313 176.871 435.645 175.461 437.974L175.496 439.599C173.401 440.642 172.477 439.193 170.058 440.011C169.673 441.238 169.776 441.559 169.828 442.837C167.952 444.764 151.134 443.206 146.857 443.723L145.478 443.146C144.315 441.563 144.709 441.709 144.613 439.316Z" fill="#B3F8DE"/>
<path d="M144.614 439.316C146.648 439.897 146.044 439.31 146.955 440.65L146.858 443.724L145.479 443.147C144.316 441.563 144.71 441.709 144.614 439.316Z" fill="#38CD9B"/>
<path d="M151.427 403.182C155.781 403.206 160.72 403.358 165.012 402.984C164.922 404.982 164.601 406.585 165.505 408.288C168.1 409.895 167.892 407.736 169.823 409.275C170.307 411.645 169.639 412.698 170.498 414.032L173.051 414.314C174.107 416.218 173.853 419.751 170.546 419.813C165.967 419.899 166.73 426.185 166.821 428.763L165.728 428.606C160.554 428.844 155.161 428.197 150.099 428.859C148.67 430.363 150.394 431.155 149.138 433.313C146.898 433.702 146.095 433.859 144.491 432.129C144.073 430.358 144.178 430.368 144.658 428.681C145.966 427.787 146.465 428.665 148.826 427.989C149.363 426.552 149.089 422.371 149.451 419.956C146.494 420.039 143.316 419.941 141.772 416.864C141.645 415.229 141.657 415.346 142.355 413.848C143.299 413.764 144.241 413.659 145.181 413.536C146.405 411.933 146.246 411.557 146.081 409.448C147.499 408.496 149.546 408.771 151.333 408.8L151.427 403.182Z" fill="#136A57"/>
<path d="M149.452 419.957C149.845 422.609 149.599 425.536 149.496 428.245C152.987 428.198 162.808 427.844 165.729 428.608C160.555 428.845 155.161 428.198 150.099 428.86C148.67 430.364 150.394 431.156 149.138 433.314C146.898 433.703 146.096 433.86 144.492 432.13C144.073 430.359 144.178 430.369 144.658 428.682C145.966 427.788 146.465 428.667 148.826 427.99C149.363 426.553 149.089 422.372 149.452 419.957Z" fill="#16705C"/>
<path d="M177.218 408.699C177.911 408.806 177.978 408.888 178.639 409.15C179.614 411.802 179.393 413.787 176.921 415.204C175.629 414.795 174.39 414.759 174.049 413.32C173.182 409.656 174.411 409.182 177.218 408.699Z" fill="#136A57"/>
<path d="M155.456 395.962C157.105 395.881 158.853 395.594 160.269 396.312C161.046 397.46 160.696 398.856 160.587 400.342C158.912 400.41 157.612 400.651 156.117 399.965C155.152 398.725 155.417 397.598 155.456 395.962Z" fill="#136A57"/>
<path d="M137.469 409.169C139.05 409.083 140.017 408.87 141.452 409.525C142.331 410.784 142.102 412.533 142.101 414.15C140.438 414.24 139.72 414.386 138.101 413.909C137.17 412.394 137.493 411.18 137.469 409.169Z" fill="#136A57"/>
<path d="M166.821 428.764C168.814 428.775 169.836 428.45 171.357 429.366C171.811 430.813 171.609 431.808 171.496 433.316C169.461 433.312 168.617 433.65 167.079 432.7C166.631 431.072 166.751 430.423 166.821 428.764Z" fill="#136A57"/>
<path d="M317.152 114.177L316.88 113.896C315.795 114.144 316.309 114.091 315.341 114.103C315.255 113.626 312.079 105.821 311.793 105.006C311.598 104.451 310.712 105.921 309.125 104.494C308.801 101.433 308.374 82.3079 309.643 80.6391C316.316 81.2172 310.984 76.4795 313.642 72.2291L315.721 72.4215L316.307 71.8752C316.385 70.554 316.357 70.4125 316.734 69.1638C318.114 69.0531 318.102 69.1003 319.366 68.5813C319.412 67.4788 319.449 67.1793 319.663 66.0967C321.717 64.2211 320.273 66.2583 323.1 65.1095C323.216 64.2329 323.299 63.4235 323.38 62.5424C324.692 61.723 327.428 62.4099 329.776 62.0651C330.589 61.1141 330.304 60.3718 330.376 58.7693C331.838 57.3319 354.349 57.3719 355.817 58.5434C355.852 59.9353 355.76 60.3772 356.26 61.6776C357.798 62.4244 359.538 61.84 361.266 61.9162C364.653 62.0669 361.953 63.2048 363.729 64.9325C367.922 65.0278 365.765 65.1521 368.277 68.8463C369.024 69.9424 368.591 67.8653 370.501 69.2991C370.223 73.2491 370.991 71.564 372.977 72.2881C374.001 72.6611 372.612 78.1737 374.124 79.9976C375.384 79.9513 375.644 79.9223 376.876 80.1129C378.077 82.582 377.347 100.926 377.237 105.171C376.758 107.35 377.165 107.017 375.838 108.396C374.659 108.611 374.155 108.733 372.943 108.793C372.844 110.647 373.187 110.826 372.199 111.769C371.452 111.628 370.635 111.492 369.899 111.326C369.826 113.033 370.073 114.201 369.228 115.43C367.179 115.665 367.973 115.24 366.612 116.41C366.506 118.168 366.83 118.326 365.889 119.227C364.311 119.219 362.508 118.907 361.442 119.685L361.416 121.735C358.852 124.035 356.099 119.507 355.611 125.377C354.009 126.589 333.961 126.224 330.841 125.84C329.327 123.754 331.215 123.502 329.625 122.097C327.839 122.056 323.618 122.518 322.58 121.926L322.502 120.254C320.389 118.603 319.345 118.622 317.296 116.492C317.193 115.569 317.139 115.101 317.152 114.177Z" fill="#2FB892"/>
<path d="M372.941 108.794C372.935 107.328 372.849 107.134 373.332 105.721C374.905 104.849 375.148 105.18 377.236 105.172C376.757 107.351 377.163 107.018 375.837 108.396C374.658 108.611 374.153 108.734 372.941 108.794Z" fill="#091615"/>
<path d="M344.561 118.941C341.636 118.788 334.41 119.671 332.723 118.179C332.832 116.933 333.039 116.163 332.49 115.051C330.046 114.081 326.1 116.017 324.656 114.025L325.006 112.54C323.756 109.915 324.726 112.873 322.459 111.1C322.518 109.448 322.735 109.994 322.05 108.693L319.756 108.717C318.562 106.774 320.014 105.891 318.853 103.827L316.511 103.594C315.581 101.823 315.556 83.8601 316.525 82.0298C317.254 81.949 317.641 81.92 318.389 81.9073L319.021 81.9028C319.62 80.4872 319.273 77.9119 319.384 75.9047C320.889 74.3475 320.819 76.1851 322.724 74.6615C322.632 73.3793 322.43 72.8821 323.074 71.8104C324.274 71.7233 325.099 71.8312 325.958 71.049L326.01 69.1053C326.955 67.8259 328.733 68.3812 331.273 67.7905C331.607 66.9765 331.581 66.7959 331.592 65.9348L331.598 65.0836C333.051 64.1526 353.751 64.0419 355.343 65.3486C355.241 70.7805 358.4 66.5518 361.186 68.6416L361.288 71.3685C362.995 73.3848 361.36 71.2124 363.868 71.9946C363.978 73.0681 364.024 73.5127 364.277 74.5553C365.091 74.7867 365.807 74.8666 366.651 74.912C367.347 76.2894 366.64 79.0171 367.087 81.3138C367.902 81.7068 368.445 81.7975 369.339 81.9309C370.403 84.1142 370.623 102.538 369.336 104.185L366.67 104.356C365.511 105.588 366.549 107.129 365.563 109.596L363.383 109.989C362.3 111.01 362.631 110.783 362.224 112.512C361.577 114.722 359.925 114.871 357.758 115.275L355.417 115.735C354.076 118.015 356.292 116.621 354.672 118.724C351.143 119.14 348.026 118.781 344.561 118.941Z" fill="#B3F8DE"/>
<path d="M336.249 79.3805C340.318 79.356 345.65 79.474 349.599 79.043L349.659 85.5038C351.505 85.5156 353.125 85.1989 354.457 86.0628C354.752 87.7742 354.818 89.0564 355.713 90.5382C356.569 90.815 356.754 90.8867 357.534 91.3885C358.042 93.02 357.654 94.6715 357.431 96.3947C355.232 96.382 353.452 96.3793 351.237 96.5454L351.354 104.744L334.696 104.717L334.529 96.5517C332.491 96.4392 329.947 96.4301 328.039 95.8712C327.488 94.2632 327.222 93.8785 327.557 92.1934C328.451 90.8858 328.918 90.8368 330.372 90.2333C330.869 87.9557 330.18 87.0319 331.057 85.7216C333.069 85.5338 334.384 85.5483 336.41 85.5918L336.249 79.3805Z" fill="#136A57"/>
<path d="M329.334 109.735C329.283 108.087 329.011 106.628 329.795 105.255C331.1 104.425 333.05 104.687 334.695 104.716C334.77 106.392 335.001 107.616 334.339 109.134C333.075 110.066 331.014 109.761 329.334 109.735Z" fill="#136A57"/>
<path d="M351.353 104.744C352.949 104.68 354.883 104.358 356.096 105.206C356.78 106.635 356.547 107.959 356.495 109.58C354.304 109.487 353.346 109.802 351.676 108.745C351.13 107.127 351.277 106.431 351.353 104.744Z" fill="#136A57"/>
<path d="M322.042 85.7237C323.677 85.6184 324.399 85.4614 325.987 85.9397C326.86 87.4614 326.576 88.4006 326.62 90.3289C324.992 90.4242 324.131 90.6056 322.582 90.0621C321.672 88.8126 321.984 87.3707 322.042 85.7237Z" fill="#136A57"/>
<path d="M341.067 71.9102C342.659 71.9301 343.467 71.8602 345.024 72.2958C345.959 73.9183 345.589 74.313 345.58 76.5253C344.089 76.5407 342.95 76.7014 341.596 76.1152C340.724 74.5163 341.068 74.0263 341.067 71.9102Z" fill="#136A57"/>
<path d="M359.228 85.6972C360.645 85.6446 361.41 85.5039 362.752 85.9958C363.553 87.4377 363.248 88.463 363.235 90.3006C361.837 90.3623 360.864 90.5429 359.575 90.0175C358.737 88.3233 359.12 87.8995 359.228 85.6972Z" fill="#16705C"/>
<path d="M150.117 466.91C174.783 467.139 199.449 467.136 224.114 466.902C224.317 478.614 224.331 490.328 224.153 502.039L224.145 507.183C200.193 506.568 174.117 507.062 150.057 507.178L150.051 500.846C150.059 490.157 149.733 477.442 150.117 466.91Z" fill="#B3F8DE"/>
<path d="M150.051 500.846C151.66 502.923 159.106 502.156 161.883 502.15L185.492 501.985C197.271 501.889 212.819 502.561 224.153 502.039L224.145 507.183C200.192 506.568 174.117 507.062 150.057 507.178L150.051 500.846Z" fill="#38CD9B"/>
<path d="M195.411 476.443L204.925 476.441C204.651 482.748 207.532 480.379 206.611 487.011C205.39 487.606 205.469 487.553 204.619 488.615C204.682 489.948 204.6 490.468 204.462 491.78C206.562 492.172 206.316 491.803 207.687 493.016L207.988 493.923C207.162 495.513 207.718 494.844 206.141 495.907L202.974 496.081C202.831 494.913 202.693 493.892 202.498 492.724C201.297 491.656 202.004 491.991 200.211 491.912C199.232 492.796 199.617 493.852 199.378 495.789L198.64 496.182C196.65 496.159 197.054 496.437 195.519 495.571C195.235 489.676 195.412 482.442 195.411 476.443Z" fill="#136A57"/>
<path d="M202.973 496.08C203.078 494.503 203.092 493.849 203.484 492.279L204.461 491.779C206.562 492.171 206.315 491.803 207.686 493.016L207.987 493.923C207.161 495.512 207.718 494.844 206.14 495.906L202.973 496.08Z" fill="#16705C"/>
<path d="M199.473 481.196C200.423 481.249 201.071 481.335 202.012 481.455C203.089 482.9 202.707 483.135 202.79 485.366C201.789 485.376 201.168 485.313 200.168 485.216C199.114 483.845 199.512 483.393 199.473 481.196Z" fill="#E5FCF8"/>
<path d="M184.914 476.34C186.331 476.291 187.494 476.077 188.725 476.7C188.78 478.515 188.696 479.428 189.808 480.807C191.093 480.844 191.388 480.846 192.637 481.103C193.329 482.674 193.282 494.988 192.36 496.042C190.554 496.143 190.623 496.444 189.393 495.667C188.723 493.987 189.036 491.462 189.115 489.563C187.437 489.513 186.958 489.544 185.282 489.732C184.158 492.085 186.455 496.256 183.178 496.222C181.912 496.209 181.638 495.797 180.882 494.956C180.783 491.023 180.125 485.162 181.378 481.424C181.646 480.624 183.406 480.329 184.217 480.125C185.169 478.536 184.839 478.484 184.914 476.34Z" fill="#136A57"/>
<path d="M185.595 482.097C186.132 481.619 186.891 481.48 187.562 481.739C188.234 481.996 188.704 482.609 188.781 483.324C188.857 484.039 188.528 484.737 187.927 485.132C187.087 485.684 185.963 485.494 185.352 484.698C184.739 483.901 184.845 482.767 185.595 482.097Z" fill="#C7F1E2"/>
<path d="M164.846 476.465C167.226 475.918 177.617 475.975 179.963 476.381C179.553 480.34 180.097 479.874 176.378 481.725C176.329 484.067 176.678 494.313 175.939 495.585C174.456 496.172 174.539 496.085 172.957 495.73C170.928 493.829 173.57 483.818 171.791 480.938C170.097 480.634 169.791 480.703 168.135 480.848L167.438 481.059C165.199 480.657 161.951 480.553 159.642 480.432L157.39 479.204C157.639 477.841 157.43 478.294 158.133 477.151C160.254 476.287 161.667 476.851 164.379 476.525L164.846 476.465Z" fill="#136A57"/>
<path d="M164.846 476.465C166.883 476.94 166.308 476.385 167.134 477.672L167.102 478.17C167.034 479.383 166.853 480.026 167.438 481.059C165.199 480.657 161.951 480.553 159.642 480.432L157.39 479.204C157.639 477.841 157.43 478.294 158.133 477.151C160.254 476.287 161.667 476.85 164.379 476.525L164.846 476.465Z" fill="#136A57"/>
<path d="M164.848 476.465C167.228 475.918 177.619 475.975 179.964 476.381C176.497 476.826 171.004 475.777 168.606 477.664C168.015 478.899 168.131 479.49 168.137 480.848L167.439 481.059C166.855 480.026 167.035 479.383 167.104 478.17L167.135 477.672C166.31 476.385 166.885 476.94 164.848 476.465Z" fill="#C7F1E2"/>
<path d="M157.39 479.203L159.642 480.431C159.491 482.17 159.255 482.929 160.067 484.182C161.821 484.094 162.485 483.876 163.94 484.838L163.87 486.524L164.714 486.714L165.553 485.642L166.059 485.618C166.616 487.468 166.431 493.698 166.431 495.967C163.697 496.07 157.421 496.48 154.997 496.089C154.149 494.481 154.729 493.527 155.683 492.272C158.333 491.035 161.332 492.325 162.879 490.655C162.316 486.512 160.038 488.723 156.806 486.709C154.09 485.018 154.316 481.915 155.529 479.491L157.001 479.768L157.39 479.203Z" fill="#136A57"/>
<path d="M212.681 484.524C212.636 482.418 212.987 482.57 211.968 481.216L211.058 481.034C210.059 480.83 209.716 480.732 208.743 480.348C207.996 479.051 208.136 478.901 208.212 477.417C210.573 476.032 217.307 476.389 220.035 476.886C220.616 478.079 220.511 478.371 220.538 479.694C218.631 482.787 216.572 478.968 216.722 486.554C216.291 485.349 216.61 484.852 215.62 483.852C214.352 483.579 213.87 483.97 212.681 484.524Z" fill="#16705C"/>
<path d="M212.68 484.525C213.87 483.97 214.352 483.58 215.619 483.852C216.609 484.853 216.291 485.35 216.722 486.555C216.84 489.756 217.861 494.009 215.197 495.928C213.365 496.037 213.935 496.363 212.843 495.581C212.288 492.679 212.603 487.649 212.68 484.525Z" fill="#136A57"/>
<path d="M444.921 9.62799L459.526 9.44922L473.978 9.47644C473.996 13.3974 474.153 18.3257 473.817 22.1541C473.668 25.7892 473.556 32.0641 473.857 35.7528C473.948 39.8425 473.981 43.9341 473.954 48.0248L459.788 48.0484L445.258 48.0012C445.055 43.8325 445.041 39.564 444.98 35.3835L444.812 22.1559L444.921 9.62799Z" fill="#14604E"/>
<path d="M444.921 9.62799L459.526 9.44922L459.506 22.1614C459.51 26.3101 459.393 31.1349 459.559 35.2265C455.598 35.6439 449.133 35.4107 444.98 35.3835L444.812 22.1559L444.921 9.62799Z" fill="#B3F8DE"/>
<path d="M444.921 9.62799L459.526 9.44922L459.506 22.1614L444.812 22.1559L444.921 9.62799Z" fill="#14604E"/>
<path d="M459.527 9.44922L473.978 9.47644C473.997 13.3974 474.154 18.3257 473.818 22.1541L459.507 22.1614L459.527 9.44922Z" fill="#B3F8DE"/>
<path d="M459.889 35.4033C463.831 35.5068 470.1 35.4178 473.859 35.7536C473.949 39.8433 473.982 43.9349 473.956 48.0256L459.789 48.0492C459.746 44.0084 459.583 39.3851 459.889 35.4033Z" fill="#B3F8DE"/>
<path d="M479.565 15.436L489.343 15.3516H504.146L503.95 28.0592C503.501 34.756 504.486 50.2802 503.702 54.4008L489.46 54.4907L479.445 54.4789L479.464 41.6669L479.446 35.6044L479.402 27.9348C479.97 24.3142 479.66 19.2099 479.565 15.436Z" fill="#136A57"/>
<path d="M479.565 15.436L489.343 15.3516H504.146L503.95 28.0592C499.399 28.0864 493.933 27.9848 489.46 28.2062L489.156 28.0574L483.481 27.9566L479.402 27.9348C479.97 24.3142 479.66 19.2099 479.565 15.436Z" fill="#B3F8DE"/>
<path d="M479.565 15.436L489.343 15.3516C489.324 18.4368 489.475 25.2688 489.156 28.0574L483.481 27.9566L479.402 27.9348C479.97 24.3142 479.66 19.2099 479.565 15.436Z" fill="#14604E"/>
<path d="M489.416 42.0615L503.631 42.0951C503.556 46.2194 503.418 50.2828 503.701 54.4016L489.459 54.4915L489.416 42.0615Z" fill="#B3F8DE"/>
<path d="M479.402 27.9346L483.481 27.9563L489.156 28.0571L489.46 28.2059L489.454 41.6921L483.965 41.6558L479.464 41.6666L479.446 35.6041L479.402 27.9346Z" fill="#C7F1E2"/>
<path d="M479.402 27.9346L483.481 27.9563L483.527 32.8991C483.478 35.0733 483.123 39.8527 483.965 41.6558L479.464 41.6666L479.446 35.6041L479.402 27.9346Z" fill="#B3F8DE"/>
</svg>
